/* XPM */
static char * F:\sprite\1\chest2_xpm[] = {
"50 50 238 2",
"  	c None",
". 	c #000000",
"+ 	c #3D3B12",
"@ 	c #493A1E",
"# 	c #4C4024",
"$ 	c #453F2E",
"% 	c #26160C",
"& 	c #340706",
"* 	c #430000",
"= 	c #490000",
"- 	c #655B45",
"; 	c #72674F",
"> 	c #A58E5C",
", 	c #534429",
"' 	c #62563C",
") 	c #2A0B0A",
"! 	c #5B0400",
"~ 	c #700000",
"{ 	c #9A0000",
"] 	c #7F0000",
"^ 	c #6E0901",
"/ 	c #5A3224",
"( 	c #574D3A",
"_ 	c #7A6D4C",
": 	c #BCA276",
"< 	c #C8A76F",
"[ 	c #201401",
"} 	c #390100",
"| 	c #310C0D",
"1 	c #362815",
"2 	c #524A35",
"3 	c #694132",
"4 	c #7B1C05",
"5 	c #AD2E00",
"6 	c #BA4A00",
"7 	c #554133",
"8 	c #816F41",
"9 	c #A08C59",
"0 	c #EBDCB9",
"a 	c #564730",
"b 	c #1C1E15",
"c 	c #2F270F",
"d 	c #3F3524",
"e 	c #2C0E14",
"f 	c #570000",
"g 	c #660400",
"h 	c #3E1214",
"i 	c #817353",
"j 	c #8A7860",
"k 	c #73483E",
"l 	c #811F0C",
"m 	c #643D2B",
"n 	c #885C41",
"o 	c #AE8050",
"p 	c #CB9C58",
"q 	c #9A6A37",
"r 	c #A47A48",
"s 	c #130D04",
"t 	c #17120A",
"u 	c #6D5F41",
"v 	c #751707",
"w 	c #8C2000",
"x 	c #A23914",
"y 	c #88190E",
"z 	c #5D0400",
"A 	c #472117",
"B 	c #9E8A57",
"C 	c #AB986A",
"D 	c #A59777",
"E 	c #D0AC73",
"F 	c #BA8E4F",
"G 	c #99794F",
"H 	c #5C4C2F",
"I 	c #403119",
"J 	c #4F2C03",
"K 	c #330100",
"L 	c #1A0302",
"M 	c #69562F",
"N 	c #997B61",
"O 	c #7E1608",
"P 	c #8D2B0E",
"Q 	c #8D6041",
"R 	c #A17246",
"S 	c #FFFFFF",
"T 	c #836E2A",
"U 	c #784D2D",
"V 	c #200A02",
"W 	c #401B02",
"X 	c #150301",
"Y 	c #2E0301",
"Z 	c #181809",
"` 	c #B0A387",
" .	c #D1B282",
"..	c #B69269",
"+.	c #DAB770",
"@.	c #735B3D",
"#.	c #371A02",
"$.	c #190D02",
"%.	c #4A2B08",
"&.	c #774E1D",
"*.	c #376B53",
"=.	c #260302",
"-.	c #261E0D",
";.	c #BAAA78",
">.	c #D1C790",
",.	c #1F0B0B",
"'.	c #080200",
").	c #270C02",
"!.	c #170701",
"~.	c #4E1C01",
"{.	c #664511",
"].	c #B38745",
"^.	c #417456",
"/.	c #1A1304",
"(.	c #0B0705",
"_.	c #604B20",
":.	c #887745",
"<.	c #A78082",
"[.	c #7F4F57",
"}.	c #0F0400",
"|.	c #070707",
"1.	c #010000",
"2.	c #946B2A",
"3.	c #C7A359",
"4.	c #427455",
"5.	c #31231B",
"6.	c #4B2E1E",
"7.	c #4C300E",
"8.	c #2E1802",
"9.	c #5F7B4C",
"0.	c #0B4307",
"a.	c #EDD46C",
"b.	c #3641AB",
"c.	c #F7F7F7",
"d.	c #755A19",
"e.	c #7F6124",
"f.	c #502D19",
"g.	c #819375",
"h.	c #657859",
"i.	c #8B9BE3",
"j.	c #14540E",
"k.	c #4E9842",
"l.	c #6677D3",
"m.	c #613000",
"n.	c #A42323",
"o.	c #BAC6A4",
"p.	c #7283D9",
"q.	c #5D6E51",
"r.	c #7B936A",
"s.	c #AFE39F",
"t.	c #B72727",
"u.	c #B08A35",
"v.	c #E3C161",
"w.	c #210503",
"x.	c #62330E",
"y.	c #FDFCFC",
"z.	c #9FB291",
"A.	c #8F562A",
"B.	c #060000",
"C.	c #CBA743",
"D.	c #E5C153",
"E.	c #080000",
"F.	c #F3A9A9",
"G.	c #D05959",
"H.	c #B73D3D",
"I.	c #4E0300",
"J.	c #C37E2E",
"K.	c #6E5120",
"L.	c #0A0100",
"M.	c #704E13",
"N.	c #C4D1BB",
"O.	c #5E471C",
"P.	c #8F661C",
"Q.	c #CC9C51",
"R.	c #D7B15E",
"S.	c #824B23",
"T.	c #63411D",
"U.	c #661204",
"V.	c #6D1609",
"W.	c #600E01",
"X.	c #411010",
"Y.	c #C09D65",
"Z.	c #707D68",
"`.	c #C1CD87",
" +	c #A0843A",
".+	c #A1682C",
"++	c #7F5A21",
"@+	c #953116",
"#+	c #88260F",
"$+	c #681500",
"%+	c #481215",
"&+	c #600900",
"*+	c #846620",
"=+	c #E3CB5B",
"-+	c #EBD87C",
";+	c #792212",
">+	c #93331A",
",+	c #983010",
"'+	c #735F42",
")+	c #A98F46",
"!+	c #775A1D",
"~+	c #31120D",
"{+	c #540300",
"]+	c #731907",
"^+	c #ACB46B",
"/+	c #D2BF63",
"(+	c #483816",
"_+	c #6F5604",
":+	c #674D3A",
"<+	c #96814A",
"[+	c #846716",
"}+	c #210808",
"|+	c #968659",
"1+	c #A99E4D",
"2+	c #500000",
"3+	c #907741",
"4+	c #B79E59",
"5+	c #3E2D0C",
"6+	c #F5F3E6",
"7+	c #543D10",
"8+	c #5A0100",
"9+	c #3D2D15",
"0+	c #0A2933",
"a+	c #642D00",
"b+	c #2B0910",
"c+	c #503C17",
"d+	c #693708",
"e+	c #371214",
"f+	c #755013",
"g+	c #491D08",
"h+	c #2C110D",
"i+	c #3E311A",
"j+	c #603B0B",
"k+	c #726245",
"l+	c #6B4911",
"m+	c #382911",
"n+	c #325A40",
"o+	c #030C01",
". . . . . . . . . . . . . . . . . . . . . . . . . . . . . . . . . . . . . . . . . . . . . . . . . . ",
". . . . . . . . . . . . . . . . . . . . . . . . . . . . . . . . . . . . . . . . . . . . . . . . . . ",
". . . . . . . . . . . . . . . . . . . . . . . . . . . . . . . . . . . . . . . . . . . . . . . . . . ",
". . . . . . . . . . . . . . . . . . . . . . . . . . . . . . . . . . . . . . . . . . . . . . . . . . ",
". . . . . . . . . . . . . . . . . . . . . . . . . . . . . . . . . . . . . . . . . . . . . . . . . . ",
". . . . . . . . . . . . . . . . . . . . . . . . . . . . . . . . . . . . . . . . . . . . . . . . . . ",
". . . . . . . . . . . . . . . . . . . . . . . . . . . . . . . . . . . . . . . . . . . . . . . . . . ",
". . . . . . . . . . . . . . . . . . . . . . . . . . . . . . . . . . . . . . . . . . . . . . . . . . ",
". . . . . . . . . . . . . . . . . . . . . . . . . . . . . . . . . . . . . . . . . . . . . . . . . . ",
". . . . . . . . . . . . . . . . . . . . . . . . . . . . . . . . . . . . . . . . . . . . . . . . . . ",
". . . . . . . . . . . . . . . . . . . . . . . . . . . . . . . . . . . . . . . . . . . . . . . . . . ",
". . . . . . . . . . . . . . . . . . . . . . . . . . . . . . . + + @ + # $ . . . . . . . . . . . . . ",
". . . . . . . . . . . . . . . . . . . . . . . . . . . % & * * = * @ - ; > ; $ . . . . . . . . . . . ",
". . . . . . . . . . . . . . . . . . . . . . @ @ @ + , ' ) ! ~ { ] ^ / ( _ : < $ . . . . . . . . . . ",
". . . . . . . . . . . . . . . . . [ } & & & & | 1 ( 2 ; > 3 4 5 6 { ] 7 8 9 : 0 a . . . . . . . . . ",
". . . . . . . . . . . . . b 1 c 1 d e = * f ~ g * h ; i j < k l m n o p q r q - a . . . . . . . . . ",
". . . . . . . . . . . . s % t $ , a u 9 v ^ w x y z A B C D E F < < G H I J 2 . . . . . . . . . . . ",
". . . . . . . . . . . t K K L t ( M - N < O v O P Q R r S T S U A V W W . . . . . . . . . . . . . . ",
". . . . . . . . . . . X K * = Y Z M 9 `  ...R < +.E G k ..A @.#.$.#.%.&.*.. . . . . . . . . . . . . ",
". . . . . . . . . . . K = K =.L -.a ;.0 >.E r N 3 h e ,.$.'.X ).!.).~.{.].^.. . . . . . . . . . . . ",
". . . . . . . . . . /.K L X (.t d _.:.<.[.) ,.,.(.}.X !.L s s |.|.(.1.. 2.3.4.. . . . . . . . . . . ",
". . . . . . . . . . /.,.t 5.6.7.#.8.(.9.$.}.}.L . . . 0.a.(.&.0.|.. b.c.. d.3.e.. . . . . . . . . . ",
". . . . . . . . . . b # f.W $.}.$.W } g.h.. . . i.. 0.j.k.. . k.. i.b.i.l.m.e. .e.. . . . . . . . . ",
". . . . . . . . . . t 8.'.}.).$.& n.).h.o.c.p.q.r.9.s.. . j.0.f f t.f . . m.u.S v.&.. . . . . . . . ",
". . . . . . . . . . =.m.J J #.(.=.w.!.x.y.S S z.q.^ 0.0.A.0.s.O t.y.B.T C.D.u.u.a.&.. . . . . . . . ",
". . . . . . . . . . /.8.E.%.&.} K n.F.q.S S S G.y.H.= I.x.. 0.t T u.v.J.A.A./ i v.K.. . . . . . . . ",
". . . . . . . . . . /.5.L.B.M.r (.(.g.N.S S S ] . . . f f O.P.Q.R.S.T.U.V.I.W._ v.O.. . . . . . . . ",
". . . . . . . . . . /.A X.L.E.d.Y.r.z.Z.`.R o.Z., u. +F .+++Q R.+.~.= W.@+#+$+; C.@ . . . . . . . . ",
". . . . . . . . . . /.f.%+X.E.E.9.q.. r A.. Z.g.y.# R 4 = &+*+=+-+&+V.;+>+,+$+'+)+@ . . . . . . . . ",
". . . . . . . . . . /.m ) | | B.L.!+=+S p ].2.r.~+y.{+&+]+&+K.^+/+W.V.;+;+@+W.'  +(+. . . . . . . . ",
". . . . . . . . . . /.T.) _+}.=.B.#.Q.:+'+<+[+}+9.|+W.;+@+z {.1+1+2+&+W.v ,+z H 3+I . . . . . . . . ",
". . . . . . . . . . /.(+e 1 4+[+) L 9 5+H <+P.,.h 6+W.#+,+z 7+9 1+I.{+z ! #+8+, u 9+. . . . . . . . ",
". . . . . . . . . . 0+a+b+L c (+b+w. +-.(+:.P.}+7.:.&+l P I.c+:.|+{+! 8+{+! &+, ' 1 . . . . . . . . ",
". . . . . . . . . . . L.d+=.L }+e+L 2.-.(+8 f+L c+o.K 4 #+I.(+8 i {+= I.n o ;.q g+/.. . . . . . . . ",
". . . . . . . . . . . . E.x.e+%+h ,.2.h+i+8 j+t ^+K.f ^ ]+8+5+k+_ J n o ;.q l+x.. . . . . . . . . . ",
". . . . . . . . . . . . . B.d+h X.L T h+9+'+J !.:.7+z f f 2+5+u _ n o l+l+. . . . . . . . . . . . . ",
". . . . . . . . . . . . . . L.x.h ) ++h+m+M 5+) `.h I.8+l+n 5+u u M.n+. . . . . . . . . . . . . . . ",
". . . . . . . . . . . . . . . o+j+w.K.X.1 H i+}+:.g+n o n l+f+{.. . . . . . . . . . . . . . . . . . ",
". . . . . . . . . . . . . . . . L.7.T.~+1 a i+}+`.l+l+3 3 . . . . . . . . . . . . . . . . . . . . . ",
". . . . . . . . . . . . . . . . . B.{.e+5+a i+) l+`.M.. . . . . . . . . . . . . . . . . . . . . . . ",
". . . . . . . . . . . . . . . . . . X h+1 {.J 5+. M.. . . . . . . . . . . . . . . . . . . . . . . . ",
". . . . . . . . . . . . . . . . . . . {.J 5+. . . . . . . . . . . . . . . . . . . . . . . . . . . . ",
". . . . . . . . . . . . . . . . . . . . . . . . . . . . . . . . . . . . . . . . . . . . . . . . . . ",
". . . . . . . . . . . . . . . . . . . . . . . . . . . . . . . . . . . . . . . . . . . . . . . . . . ",
". . . . . . . . . . . . . . . . . . . . . . . . . . . . . . . . . . . . . . . . . . . . . . . . . . ",
". . . . . . . . . . . . . . . . . . . . . . . . . . . . . . . . . . . . . . . . . . . . . . . . . . ",
". . . . . . . . . . . . . . . . . . . . . . . . . . . . . . . . . . . . . . . . . . . . . . . . . . ",
". . . . . . . . . . . . . . . . . . . . . . . . . . . . . . . . . . . . . . . . . . . . . . . . . . ",
". . . . . . . . . . . . . . . . . . . . . . . . . . . . . . . . . . . . . . . . . . . . . . . . . . ",
". . . . . . . . . . . . . . . . . . . . . . . . . . . . . . . . . . . . . . . . . . . . . . . . . . "};
