/* XPM */
static char * F:\sprite\1\chest4_xpm[] = {
"50 50 242 2",
"  	c None",
". 	c #000000",
"+ 	c #3D3B12",
"@ 	c #493A1E",
"# 	c #4C4024",
"$ 	c #453F2E",
"% 	c #26160C",
"& 	c #340706",
"* 	c #430000",
"= 	c #490000",
"- 	c #655B45",
"; 	c #72674F",
"> 	c #A58E5C",
", 	c #534429",
"' 	c #62563C",
") 	c #2A0B0A",
"! 	c #5B0400",
"~ 	c #700000",
"{ 	c #9A0000",
"] 	c #7F0000",
"^ 	c #6E0901",
"/ 	c #5A3224",
"( 	c #574D3A",
"_ 	c #7A6D4C",
": 	c #BCA276",
"< 	c #C8A76F",
"[ 	c #201401",
"} 	c #390100",
"| 	c #310C0D",
"1 	c #362815",
"2 	c #524A35",
"3 	c #694132",
"4 	c #7B1C05",
"5 	c #AD2E00",
"6 	c #BA4A00",
"7 	c #554133",
"8 	c #816F41",
"9 	c #A08C59",
"0 	c #EBDCB9",
"a 	c #564730",
"b 	c #1C1E15",
"c 	c #2F270F",
"d 	c #3F3524",
"e 	c #2C0E14",
"f 	c #570000",
"g 	c #660400",
"h 	c #3E1214",
"i 	c #817353",
"j 	c #8A7860",
"k 	c #73483E",
"l 	c #811F0C",
"m 	c #643D2B",
"n 	c #885C41",
"o 	c #AE8050",
"p 	c #CB9C58",
"q 	c #9A6A37",
"r 	c #A47A48",
"s 	c #130D04",
"t 	c #17120A",
"u 	c #6D5F41",
"v 	c #751707",
"w 	c #8C2000",
"x 	c #A23914",
"y 	c #88190E",
"z 	c #5D0400",
"A 	c #472117",
"B 	c #9E8A57",
"C 	c #AB986A",
"D 	c #5F7B4C",
"E 	c #D1B282",
"F 	c #BA8E4F",
"G 	c #99794F",
"H 	c #5C4C2F",
"I 	c #403119",
"J 	c #4F2C03",
"K 	c #330100",
"L 	c #1A0302",
"M 	c #69562F",
"N 	c #997B61",
"O 	c #7E1608",
"P 	c #8D2B0E",
"Q 	c #8D6041",
"R 	c #A17246",
"S 	c #FFFFFF",
"T 	c #819375",
"U 	c #657859",
"V 	c #784D2D",
"W 	c #200A02",
"X 	c #401B02",
"Y 	c #150301",
"Z 	c #2E0301",
"` 	c #181809",
" .	c #B0A387",
"..	c #B69269",
"+.	c #DAB770",
"@.	c #D0AC73",
"#.	c #BAC6A4",
"$.	c #2E1802",
"%.	c #190D02",
"&.	c #5D6E51",
"*.	c #7B936A",
"=.	c #376B53",
"-.	c #260302",
";.	c #261E0D",
">.	c #BAAA78",
",.	c #D1C790",
"'.	c #1F0B0B",
").	c #060000",
"!.	c #FDFCFC",
"~.	c #9FB291",
"{.	c #664511",
"].	c #B38745",
"^.	c #417456",
"/.	c #1A1304",
"(.	c #0B0705",
"_.	c #604B20",
":.	c #887745",
"<.	c #A78082",
"[.	c #7F4F57",
"}.	c #0F0400",
"|.	c #170701",
"1.	c #070707",
"2.	c #010000",
"3.	c #946B2A",
"4.	c #C7A359",
"5.	c #427455",
"6.	c #31231B",
"7.	c #4B2E1E",
"8.	c #4C300E",
"9.	c #371A02",
"0.	c #0F0201",
"a.	c #0B4307",
"b.	c #C4D1BB",
"c.	c #3641AB",
"d.	c #F7F7F7",
"e.	c #755A19",
"f.	c #7F6124",
"g.	c #502D19",
"h.	c #8B9BE3",
"i.	c #707D68",
"j.	c #4E9842",
"k.	c #6677D3",
"l.	c #613000",
"m.	c #080200",
"n.	c #270C02",
"o.	c #A42323",
"p.	c #4F5BBC",
"q.	c #7283D9",
"r.	c #2E3891",
"s.	c #14540E",
"t.	c #5A0100",
"u.	c #B08A35",
"v.	c #E3C161",
"w.	c #774E1D",
"x.	c #210503",
"y.	c #62330E",
"z.	c #D05959",
"A.	c #8F562A",
"B.	c #AFE39F",
"C.	c #B72727",
"D.	c #836E2A",
"E.	c #CBA743",
"F.	c #E5C153",
"G.	c #EDD46C",
"H.	c #080000",
"I.	c #4A2B08",
"J.	c #F3A9A9",
"K.	c #0C1446",
"L.	c #961B1B",
"M.	c #B73D3D",
"N.	c #4E0300",
"O.	c #C37E2E",
"P.	c #6E5120",
"Q.	c #0A0100",
"R.	c #704E13",
"S.	c #5E471C",
"T.	c #8F661C",
"U.	c #CC9C51",
"V.	c #D7B15E",
"W.	c #824B23",
"X.	c #63411D",
"Y.	c #661204",
"Z.	c #6D1609",
"`.	c #600E01",
" +	c #411010",
".+	c #C09D65",
"++	c #C1CD87",
"@+	c #A98F46",
"#+	c #A0843A",
"$+	c #A1682C",
"%+	c #7F5A21",
"&+	c #4E1C01",
"*+	c #953116",
"=+	c #88260F",
"-+	c #681500",
";+	c #481215",
">+	c #775A1D",
",+	c #600900",
"'+	c #846620",
")+	c #E3CB5B",
"!+	c #EBD87C",
"~+	c #792212",
"{+	c #93331A",
"]+	c #983010",
"^+	c #735F42",
"/+	c #31120D",
"(+	c #540300",
"_+	c #731907",
":+	c #ACB46B",
"<+	c #D2BF63",
"[+	c #483816",
"}+	c #6F5604",
"|+	c #674D3A",
"1+	c #96814A",
"2+	c #371214",
"3+	c #968659",
"4+	c #A99E4D",
"5+	c #500000",
"6+	c #907741",
"7+	c #B79E59",
"8+	c #846716",
"9+	c #3E2D0C",
"0+	c #331E10",
"a+	c #F5F3E6",
"b+	c #543D10",
"c+	c #3D2D15",
"d+	c #0A2933",
"e+	c #642D00",
"f+	c #2B0910",
"g+	c #210808",
"h+	c #503C17",
"i+	c #693708",
"j+	c #755013",
"k+	c #491D08",
"l+	c #2C110D",
"m+	c #3E311A",
"n+	c #603B0B",
"o+	c #726245",
"p+	c #6B4911",
"q+	c #382911",
"r+	c #325A40",
"s+	c #030C01",
". . . . . . . . . . . . . . . . . . . . . . . . . . . . . . . . . . . . . . . . . . . . . . . . . . ",
". . . . . . . . . . . . . . . . . . . . . . . . . . . . . . . . . . . . . . . . . . . . . . . . . . ",
". . . . . . . . . . . . . . . . . . . . . . . . . . . . . . . . . . . . . . . . . . . . . . . . . . ",
". . . . . . . . . . . . . . . . . . . . . . . . . . . . . . . . . . . . . . . . . . . . . . . . . . ",
". . . . . . . . . . . . . . . . . . . . . . . . . . . . . . . . . . . . . . . . . . . . . . . . . . ",
". . . . . . . . . . . . . . . . . . . . . . . . . . . . . . . . . . . . . . . . . . . . . . . . . . ",
". . . . . . . . . . . . . . . . . . . . . . . . . . . . . . . . . . . . . . . . . . . . . . . . . . ",
". . . . . . . . . . . . . . . . . . . . . . . . . . . . . . . . . . . . . . . . . . . . . . . . . . ",
". . . . . . . . . . . . . . . . . . . . . . . . . . . . . . . . . . . . . . . . . . . . . . . . . . ",
". . . . . . . . . . . . . . . . . . . . . . . . . . . . . . . . . . . . . . . . . . . . . . . . . . ",
". . . . . . . . . . . . . . . . . . . . . . . . . . . . . . . . . . . . . . . . . . . . . . . . . . ",
". . . . . . . . . . . . . . . . . . . . . . . . . . . . . . . . + + @ + # $ . . . . . . . . . . . . ",
". . . . . . . . . . . . . . . . . . . . . . . . . . . . % & * * = * @ - ; > ; $ . . . . . . . . . . ",
". . . . . . . . . . . . . . . . . . . . . . . @ @ @ + , ' ) ! ~ { ] ^ / ( _ : < $ . . . . . . . . . ",
". . . . . . . . . . . . . . . . . . [ } & & & & | 1 ( 2 ; > 3 4 5 6 { ] 7 8 9 : 0 a . . . . . . . . ",
". . . . . . . . . . . . . . b 1 c 1 d e = * f ~ g * h ; i j < k l m n o p q r q - a . . . . . . . . ",
". . . . . . . . . . . . . s % t $ , a u 9 v ^ w x y z A B C D E F < < G H I J 2 . . . . . . . . . . ",
". . . . . . . . . . . . t K K L t ( M - N < O v O P Q R r S T U V A W X X . . . . . . . . . . . . . ",
". . . . . . . . . . . . Y K * = Z ` M 9  .E ..R < +.@.G k ..U #.$.%.&.*.D =.. . . . . . . . . . . . ",
". . . . . . . . . . . . K = K -.L ;.a >.0 ,.@.r N 3 h e '.%.).!.S S ~.&.{.].^.. . . . . . . . . . . ",
". . . . . . . . . . . /.K L Y (.t d _.:.<.[.) '.'.(.}.Y |.L &.S S S 1.2.. 3.4.5.. . . . . . . . . . ",
". . . . . . . . . . . /.'.t 6.7.8.9.$.(.0.%.}.}.L . . . a.T b.S S S . c.d.. e.4.f.. . . . . . . . . ",
". . . . . . . . . . . b # g.X %.}.%.X } Y 2.. . . h.. a.*.~.i.. j.#.i.c.h.k.l.f.E f.. . . . . . . . ",
". . . . . . . . . . . t $.m.}.n.%.& o.n.).p.!.q.. r.. D &.. s.a.f i.T t.. . l.u.S v.w.. . . . . . . ",
". . . . . . . . . . . -.l.J J 9.(.-.x.|.y.w.(.r.2.z.^ a.a.A.a.B.O C.*.2.D.E.F.u.u.G.w.. . . . . . . ",
". . . . . . . . . . . /.$.H.I.w.} K o.J.K.(.y.L.z.!.M.= N.y.. a.t D.u.D O.A.A./ i v.P.. . . . . . . ",
". . . . . . . . . . . /.6.Q.).R.r (.(.c.1.L.1.^ ] . . . f f S.T.U.V.W.X.Y.Z.N.`._ v.S.. . . . . . . ",
". . . . . . . . . . . /.A  +Q.H.e..+. . . ++R d.:., @+#+F $+%+Q V.+.&+= `.*+=+-+; E.@ . . . . . . . ",
". . . . . . . . . . . /.g.;+ +H.H.>+.+. R A.. _._.!.# R 4 = ,+'+)+!+,+Z.~+{+]+-+^+@+@ . . . . . . . ",
". . . . . . . . . . . /.m ) | | ).m.>+)+S p ].3.7./+!.(+,+_+,+P.:+<+`.Z.~+~+*+`.' #+[+. . . . . . . ",
". . . . . . . . . . . /.X.) }+}.-.).9.U.|+^+1+T.'.2+3+`.~+*+z {.4+4+5+,+`.v ]+z H 6+I . . . . . . . ",
". . . . . . . . . . . /.[+e 1 7+8+) L 9 9+H 1+T.'.0+a+`.=+]+z b+9 4+N.(+z ! =+t., u c+. . . . . . . ",
". . . . . . . . . . . d+e+f+L c [+f+x.#+;.[+:.T.g+I.:.,+l P N.h+:.3+(+! t.(+! ,+, ' 1 . . . . . . . ",
". . . . . . . . . . . . Q.i+-.L g+2+L 3.;.[+8 j+L h+#.K 4 =+N.[+8 i (+= N.n o >.q k+/.. . . . . . . ",
". . . . . . . . . . . . . H.y.2+;+h '.3.l+m+8 n+t :+P.f ^ _+t.9+o+_ J n o >.q p+y.. . . . . . . . . ",
". . . . . . . . . . . . . . ).i+h  +L D.l+c+^+J |.:.b+z f f 5+9+u _ n o p+p+. . . . . . . . . . . . ",
". . . . . . . . . . . . . . . Q.y.h ) %+l+q+M 9+) ++h N.t.p+n 9+u u R.r+. . . . . . . . . . . . . . ",
". . . . . . . . . . . . . . . . s+n+x.P. +1 H m+g+:.k+n o n p+j+{.. . . . . . . . . . . . . . . . . ",
". . . . . . . . . . . . . . . . . Q.8.X./+1 a m+g+++p+p+3 3 . . . . . . . . . . . . . . . . . . . . ",
". . . . . . . . . . . . . . . . . . ).{.2+9+a m+) p+++R.. . . . . . . . . . . . . . . . . . . . . . ",
". . . . . . . . . . . . . . . . . . . Y l+1 {.J 9+. R.. . . . . . . . . . . . . . . . . . . . . . . ",
". . . . . . . . . . . . . . . . . . . . {.J 9+. . . . . . . . . . . . . . . . . . . . . . . . . . . ",
". . . . . . . . . . . . . . . . . . . . . . . . . . . . . . . . . . . . . . . . . . . . . . . . . . ",
". . . . . . . . . . . . . . . . . . . . . . . . . . . . . . . . . . . . . . . . . . . . . . . . . . ",
". . . . . . . . . . . . . . . . . . . . . . . . . . . . . . . . . . . . . . . . . . . . . . . . . . ",
". . . . . . . . . . . . . . . . . . . . . . . . . . . . . . . . . . . . . . . . . . . . . . . . . . ",
". . . . . . . . . . . . . . . . . . . . . . . . . . . . . . . . . . . . . . . . . . . . . . . . . . ",
". . . . . . . . . . . . . . . . . . . . . . . . . . . . . . . . . . . . . . . . . . . . . . . . . . ",
". . . . . . . . . . . . . . . . . . . . . . . . . . . . . . . . . . . . . . . . . . . . . . . . . . ",
". . . . . . . . . . . . . . . . . . . . . . . . . . . . . . . . . . . . . . . . . . . . . . . . . . "};
