/* XPM */
static char * F:\sprite\1\chest1_xpm[] = {
"50 50 241 2",
"  	c None",
". 	c #000000",
"+ 	c #3D3B12",
"@ 	c #493A1E",
"# 	c #4C4024",
"$ 	c #453F2E",
"% 	c #26160C",
"& 	c #340706",
"* 	c #430000",
"= 	c #490000",
"- 	c #655B45",
"; 	c #72674F",
"> 	c #A58E5C",
", 	c #534429",
"' 	c #62563C",
") 	c #2A0B0A",
"! 	c #5B0400",
"~ 	c #700000",
"{ 	c #9A0000",
"] 	c #7F0000",
"^ 	c #6E0901",
"/ 	c #5A3224",
"( 	c #574D3A",
"_ 	c #7A6D4C",
": 	c #BCA276",
"< 	c #C8A76F",
"[ 	c #201401",
"} 	c #390100",
"| 	c #310C0D",
"1 	c #362815",
"2 	c #524A35",
"3 	c #694132",
"4 	c #7B1C05",
"5 	c #AD2E00",
"6 	c #BA4A00",
"7 	c #554133",
"8 	c #816F41",
"9 	c #A08C59",
"0 	c #EBDCB9",
"a 	c #564730",
"b 	c #1C1E15",
"c 	c #2F270F",
"d 	c #3F3524",
"e 	c #2C0E14",
"f 	c #570000",
"g 	c #660400",
"h 	c #3E1214",
"i 	c #817353",
"j 	c #8A7860",
"k 	c #73483E",
"l 	c #811F0C",
"m 	c #643D2B",
"n 	c #885C41",
"o 	c #AE8050",
"p 	c #CB9C58",
"q 	c #9A6A37",
"r 	c #A47A48",
"s 	c #130D04",
"t 	c #17120A",
"u 	c #6D5F41",
"v 	c #751707",
"w 	c #8C2000",
"x 	c #A23914",
"y 	c #88190E",
"z 	c #5D0400",
"A 	c #472117",
"B 	c #9E8A57",
"C 	c #AB986A",
"D 	c #A59777",
"E 	c #D0AC73",
"F 	c #BA8E4F",
"G 	c #99794F",
"H 	c #5C4C2F",
"I 	c #403119",
"J 	c #4F2C03",
"K 	c #330100",
"L 	c #1A0302",
"M 	c #69562F",
"N 	c #997B61",
"O 	c #7E1608",
"P 	c #8D2B0E",
"Q 	c #8D6041",
"R 	c #A17246",
"S 	c #FFFFFF",
"T 	c #836E2A",
"U 	c #784D2D",
"V 	c #200A02",
"W 	c #401B02",
"X 	c #150301",
"Y 	c #2E0301",
"Z 	c #181809",
"` 	c #B0A387",
" .	c #D1B282",
"..	c #B69269",
"+.	c #DAB770",
"@.	c #735B3D",
"#.	c #371A02",
"$.	c #190D02",
"%.	c #4A2B08",
"&.	c #774E1D",
"*.	c #376B53",
"=.	c #260302",
"-.	c #261E0D",
";.	c #BAAA78",
">.	c #D1C790",
",.	c #657859",
"'.	c #1F0B0B",
").	c #080200",
"!.	c #270C02",
"~.	c #170701",
"{.	c #4E1C01",
"].	c #664511",
"^.	c #B38745",
"/.	c #417456",
"(.	c #1A1304",
"_.	c #0B0705",
":.	c #604B20",
"<.	c #887745",
"[.	c #A78082",
"}.	c #7F4F57",
"|.	c #7B936A",
"1.	c #070707",
"2.	c #010000",
"3.	c #946B2A",
"4.	c #C7A359",
"5.	c #427455",
"6.	c #31231B",
"7.	c #4B2E1E",
"8.	c #4C300E",
"9.	c #2E1802",
"0.	c #0F0201",
"a.	c #0F0400",
"b.	c #BAC6A4",
"c.	c #0B4307",
"d.	c #5D6E51",
"e.	c #5F7B4C",
"f.	c #3641AB",
"g.	c #F7F7F7",
"h.	c #755A19",
"i.	c #7F6124",
"j.	c #502D19",
"k.	c #8B9BE3",
"l.	c #FDFCFC",
"m.	c #9FB291",
"n.	c #4E9842",
"o.	c #6677D3",
"p.	c #613000",
"q.	c #A42323",
"r.	c #060000",
"s.	c #4F5BBC",
"t.	c #7283D9",
"u.	c #14540E",
"v.	c #B72727",
"w.	c #B08A35",
"x.	c #E3C161",
"y.	c #210503",
"z.	c #62330E",
"A.	c #2E3891",
"B.	c #819375",
"C.	c #C4D1BB",
"D.	c #824B23",
"E.	c #AFE39F",
"F.	c #CBA743",
"G.	c #E5C153",
"H.	c #EDD46C",
"I.	c #080000",
"J.	c #F3A9A9",
"K.	c #0C1446",
"L.	c #707D68",
"M.	c #B73D3D",
"N.	c #C37E2E",
"O.	c #8F562A",
"P.	c #6E5120",
"Q.	c #0A0100",
"R.	c #704E13",
"S.	c #961B1B",
"T.	c #5E471C",
"U.	c #8F661C",
"V.	c #CC9C51",
"W.	c #D7B15E",
"X.	c #63411D",
"Y.	c #661204",
"Z.	c #6D1609",
"`.	c #4E0300",
" +	c #600E01",
".+	c #411010",
"++	c #C09D65",
"@+	c #C1CD87",
"#+	c #A98F46",
"$+	c #A0843A",
"%+	c #7F5A21",
"&+	c #953116",
"*+	c #88260F",
"=+	c #681500",
"-+	c #481215",
";+	c #775A1D",
">+	c #731907",
",+	c #E3CB5B",
"'+	c #EBD87C",
")+	c #600900",
"!+	c #792212",
"~+	c #93331A",
"{+	c #983010",
"]+	c #735F42",
"^+	c #31120D",
"/+	c #540300",
"(+	c #ACB46B",
"_+	c #D2BF63",
":+	c #483816",
"<+	c #6F5604",
"[+	c #674D3A",
"}+	c #96814A",
"|+	c #371214",
"1+	c #968659",
"2+	c #A99E4D",
"3+	c #500000",
"4+	c #907741",
"5+	c #B79E59",
"6+	c #846716",
"7+	c #3E2D0C",
"8+	c #331E10",
"9+	c #F5F3E6",
"0+	c #543D10",
"a+	c #5A0100",
"b+	c #3D2D15",
"c+	c #0A2933",
"d+	c #642D00",
"e+	c #2B0910",
"f+	c #210808",
"g+	c #503C17",
"h+	c #693708",
"i+	c #755013",
"j+	c #491D08",
"k+	c #2C110D",
"l+	c #3E311A",
"m+	c #603B0B",
"n+	c #726245",
"o+	c #6B4911",
"p+	c #382911",
"q+	c #325A40",
"r+	c #030C01",
". . . . . . . . . . . . . . . . . . . . . . . . . . . . . . . . . . . . . . . . . . . . . . . . . . ",
". . . . . . . . . . . . . . . . . . . . . . . . . . . . . . . . . . . . . . . . . . . . . . . . . . ",
". . . . . . . . . . . . . . . . . . . . . . . . . . . . . . . . . . . . . . . . . . . . . . . . . . ",
". . . . . . . . . . . . . . . . . . . . . . . . . . . . . . . . . . . . . . . . . . . . . . . . . . ",
". . . . . . . . . . . . . . . . . . . . . . . . . . . . . . . . . . . . . . . . . . . . . . . . . . ",
". . . . . . . . . . . . . . . . . . . . . . . . . . . . . . . . . . . . . . . . . . . . . . . . . . ",
". . . . . . . . . . . . . . . . . . . . . . . . . . . . . . . . . . . . . . . . . . . . . . . . . . ",
". . . . . . . . . . . . . . . . . . . . . . . . . . . . . . . . . . . . . . . . . . . . . . . . . . ",
". . . . . . . . . . . . . . . . . . . . . . . . . . . . . . . . . . . . . . . . . . . . . . . . . . ",
". . . . . . . . . . . . . . . . . . . . . . . . . . . . . . . . . . . . . . . . . . . . . . . . . . ",
". . . . . . . . . . . . . . . . . . . . . . . . . . . . . . . . . . . . . . . . . . . . . . . . . . ",
". . . . . . . . . . . . . . . . . . . . . . . . . . . . . . . + + @ + # $ . . . . . . . . . . . . . ",
". . . . . . . . . . . . . . . . . . . . . . . . . . . % & * * = * @ - ; > ; $ . . . . . . . . . . . ",
". . . . . . . . . . . . . . . . . . . . . . @ @ @ + , ' ) ! ~ { ] ^ / ( _ : < $ . . . . . . . . . . ",
". . . . . . . . . . . . . . . . . [ } & & & & | 1 ( 2 ; > 3 4 5 6 { ] 7 8 9 : 0 a . . . . . . . . . ",
". . . . . . . . . . . . . b 1 c 1 d e = * f ~ g * h ; i j < k l m n o p q r q - a . . . . . . . . . ",
". . . . . . . . . . . . s % t $ , a u 9 v ^ w x y z A B C D E F < < G H I J 2 . . . . . . . . . . . ",
". . . . . . . . . . . t K K L t ( M - N < O v O P Q R r S T S U A V W W . . . . . . . . . . . . . . ",
". . . . . . . . . . . X K * = Y Z M 9 `  ...R < +.E G k ..A @.#.$.#.%.&.*.. . . . . . . . . . . . . ",
". . . . . . . . . . . K = K =.L -.a ;.0 >.E r N ,.h e '.$.).X !.~.!.{.].^./.. . . . . . . . . . . . ",
". . . . . . . . . . (.K L X _.t d :.<.[.}.) '.'.|.,.X ~.L s s 1.1._.2.. 3.4.5.. . . . . . . . . . . ",
". . . . . . . . . . (.'.t 6.7.8.#.9._.0.$.a.a.L ,.b.. c.d.|.e.c.1.. f.g.. h.4.i.. . . . . . . . . . ",
". . . . . . . . . . b # j.W $.a.$.W } X 2.. . . k.l.S S m.d.. n.. k.f.k.o.p.i. .i.. . . . . . . . . ",
". . . . . . . . . . t 9.).a.!.$.& q.!.r.s.l.t.. d.S S S . u.c.f f v.f . . p.w.S x.&.. . . . . . . . ",
". . . . . . . . . . =.p.J J #._.=.y.~.z.&._.A.B.C.S S S D.c.E.O v.l.r.T F.G.w.w.H.&.. . . . . . . . ",
". . . . . . . . . . (.9.I.%.&.} K q.J.K._.z.|.m.L.M.= b.L.. c.t T w.x.N.O.O./ i x.P.. . . . . . . . ",
". . . . . . . . . . (.6.Q.r.R.r _._.f.1.S.e.d.] . . . L.B.T.U.V.W.D.X.Y.Z.`. +_ x.T.. . . . . . . . ",
". . . . . . . . . . (.A .+Q.I.h.++. . . @+r l.<., #+$+F |.%+Q W.+.{.=  +&+*+=+; F.@ . . . . . . . . ",
". . . . . . . . . . (.j.-+.+I.I.;+++. R O.. T.:.l.# R >+= e.i.,+'+)+Z.!+~+{+=+]+#+@ . . . . . . . . ",
". . . . . . . . . . (.m ) | | r.).;+,+S p ^.3.7.^+l./+)+>+)+P.(+_+ +Z.!+!+&+ +' $+:+. . . . . . . . ",
". . . . . . . . . . (.X.) <+a.=.r.#.V.[+]+}+U.'.|+1+ +!+&+z ].2+2+3+)+ +v {+z H 4+I . . . . . . . . ",
". . . . . . . . . . (.:+e 1 5+6+) L 9 7+H }+U.'.8+9+ +*+{+z 0+9 2+`./+z ! *+a+, u b+. . . . . . . . ",
". . . . . . . . . . c+d+e+L c :+e+y.$+-.:+<.U.f+%.<.)+l P `.g+<.1+/+! a+/+! )+, ' 1 . . . . . . . . ",
". . . . . . . . . . . Q.h+=.L f+|+L 3.-.:+8 i+L g+b.K 4 *+`.:+8 i /+= `.n o ;.q j+(.. . . . . . . . ",
". . . . . . . . . . . . I.z.|+-+h '.3.k+l+8 m+t (+P.f ^ >+a+7+n+_ J n o ;.q o+z.. . . . . . . . . . ",
". . . . . . . . . . . . . r.h+h .+L T k+b+]+J ~.<.0+z f f 3+7+u _ n o o+o+. . . . . . . . . . . . . ",
". . . . . . . . . . . . . . Q.z.h ) %+k+p+M 7+) @+h `.a+o+n 7+u u R.q+. . . . . . . . . . . . . . . ",
". . . . . . . . . . . . . . . r+m+y.P..+1 H l+f+<.j+n o n o+i+].. . . . . . . . . . . . . . . . . . ",
". . . . . . . . . . . . . . . . Q.8.X.^+1 a l+f+@+o+o+3 3 . . . . . . . . . . . . . . . . . . . . . ",
". . . . . . . . . . . . . . . . . r.].|+7+a l+) o+@+R.. . . . . . . . . . . . . . . . . . . . . . . ",
". . . . . . . . . . . . . . . . . . X k+1 ].J 7+. R.. . . . . . . . . . . . . . . . . . . . . . . . ",
". . . . . . . . . . . . . . . . . . . ].J 7+. . . . . . . . . . . . . . . . . . . . . . . . . . . . ",
". . . . . . . . . . . . . . . . . . . . . . . . . . . . . . . . . . . . . . . . . . . . . . . . . . ",
". . . . . . . . . . . . . . . . . . . . . . . . . . . . . . . . . . . . . . . . . . . . . . . . . . ",
". . . . . . . . . . . . . . . . . . . . . . . . . . . . . . . . . . . . . . . . . . . . . . . . . . ",
". . . . . . . . . . . . . . . . . . . . . . . . . . . . . . . . . . . . . . . . . . . . . . . . . . ",
". . . . . . . . . . . . . . . . . . . . . . . . . . . . . . . . . . . . . . . . . . . . . . . . . . ",
". . . . . . . . . . . . . . . . . . . . . . . . . . . . . . . . . . . . . . . . . . . . . . . . . . ",
". . . . . . . . . . . . . . . . . . . . . . . . . . . . . . . . . . . . . . . . . . . . . . . . . . ",
". . . . . . . . . . . . . . . . . . . . . . . . . . . . . . . . . . . . . . . . . . . . . . . . . . "};
