/* XPM */
static char * F:\sprite\1\chest3_xpm[] = {
"50 50 236 2",
"  	c None",
". 	c #000000",
"+ 	c #3D3B12",
"@ 	c #493A1E",
"# 	c #4C4024",
"$ 	c #453F2E",
"% 	c #26160C",
"& 	c #340706",
"* 	c #430000",
"= 	c #490000",
"- 	c #655B45",
"; 	c #72674F",
"> 	c #A58E5C",
", 	c #534429",
"' 	c #62563C",
") 	c #2A0B0A",
"! 	c #5B0400",
"~ 	c #700000",
"{ 	c #9A0000",
"] 	c #7F0000",
"^ 	c #6E0901",
"/ 	c #5A3224",
"( 	c #574D3A",
"_ 	c #7A6D4C",
": 	c #BCA276",
"< 	c #C8A76F",
"[ 	c #201401",
"} 	c #390100",
"| 	c #310C0D",
"1 	c #362815",
"2 	c #524A35",
"3 	c #694132",
"4 	c #7B1C05",
"5 	c #AD2E00",
"6 	c #BA4A00",
"7 	c #554133",
"8 	c #816F41",
"9 	c #A08C59",
"0 	c #EBDCB9",
"a 	c #564730",
"b 	c #1C1E15",
"c 	c #2F270F",
"d 	c #3F3524",
"e 	c #2C0E14",
"f 	c #570000",
"g 	c #660400",
"h 	c #3E1214",
"i 	c #817353",
"j 	c #8A7860",
"k 	c #73483E",
"l 	c #811F0C",
"m 	c #643D2B",
"n 	c #885C41",
"o 	c #AE8050",
"p 	c #CB9C58",
"q 	c #9A6A37",
"r 	c #A47A48",
"s 	c #130D04",
"t 	c #17120A",
"u 	c #6D5F41",
"v 	c #751707",
"w 	c #8C2000",
"x 	c #A23914",
"y 	c #88190E",
"z 	c #5D0400",
"A 	c #472117",
"B 	c #9E8A57",
"C 	c #AB986A",
"D 	c #A59777",
"E 	c #D0AC73",
"F 	c #BA8E4F",
"G 	c #99794F",
"H 	c #5C4C2F",
"I 	c #403119",
"J 	c #4F2C03",
"K 	c #330100",
"L 	c #1A0302",
"M 	c #69562F",
"N 	c #997B61",
"O 	c #7E1608",
"P 	c #8D2B0E",
"Q 	c #8D6041",
"R 	c #A17246",
"S 	c #FFFFFF",
"T 	c #836E2A",
"U 	c #784D2D",
"V 	c #200A02",
"W 	c #401B02",
"X 	c #150301",
"Y 	c #2E0301",
"Z 	c #181809",
"` 	c #B0A387",
" .	c #D1B282",
"..	c #B69269",
"+.	c #DAB770",
"@.	c #735B3D",
"#.	c #371A02",
"$.	c #190D02",
"%.	c #4A2B08",
"&.	c #774E1D",
"*.	c #376B53",
"=.	c #260302",
"-.	c #261E0D",
";.	c #BAAA78",
">.	c #D1C790",
",.	c #1F0B0B",
"'.	c #080200",
").	c #170701",
"!.	c #270C02",
"~.	c #4E1C01",
"{.	c #664511",
"].	c #B38745",
"^.	c #417456",
"/.	c #1A1304",
"(.	c #0B0705",
"_.	c #604B20",
":.	c #887745",
"<.	c #A78082",
"[.	c #7F4F57",
"}.	c #0F0400",
"|.	c #010000",
"1.	c #946B2A",
"2.	c #C7A359",
"3.	c #427455",
"4.	c #31231B",
"5.	c #4B2E1E",
"6.	c #4C300E",
"7.	c #2E1802",
"8.	c #0F0201",
"9.	c #0B4307",
"0.	c #EDD46C",
"a.	c #070707",
"b.	c #3641AB",
"c.	c #F7F7F7",
"d.	c #755A19",
"e.	c #7F6124",
"f.	c #502D19",
"g.	c #8B9BE3",
"h.	c #14540E",
"i.	c #4E9842",
"j.	c #6677D3",
"k.	c #613000",
"l.	c #A42323",
"m.	c #060000",
"n.	c #4F5BBC",
"o.	c #FDFCFC",
"p.	c #7283D9",
"q.	c #2E3891",
"r.	c #AFE39F",
"s.	c #B72727",
"t.	c #B08A35",
"u.	c #E3C161",
"v.	c #210503",
"w.	c #62330E",
"x.	c #D05959",
"y.	c #8F562A",
"z.	c #CBA743",
"A.	c #E5C153",
"B.	c #080000",
"C.	c #F3A9A9",
"D.	c #0C1446",
"E.	c #961B1B",
"F.	c #B73D3D",
"G.	c #4E0300",
"H.	c #C37E2E",
"I.	c #6E5120",
"J.	c #0A0100",
"K.	c #704E13",
"L.	c #5E471C",
"M.	c #8F661C",
"N.	c #CC9C51",
"O.	c #D7B15E",
"P.	c #824B23",
"Q.	c #63411D",
"R.	c #661204",
"S.	c #6D1609",
"T.	c #600E01",
"U.	c #411010",
"V.	c #C09D65",
"W.	c #C1CD87",
"X.	c #A98F46",
"Y.	c #A0843A",
"Z.	c #A1682C",
"`.	c #7F5A21",
" +	c #953116",
".+	c #88260F",
"++	c #681500",
"@+	c #481215",
"#+	c #775A1D",
"$+	c #600900",
"%+	c #846620",
"&+	c #E3CB5B",
"*+	c #EBD87C",
"=+	c #792212",
"-+	c #93331A",
";+	c #983010",
">+	c #735F42",
",+	c #31120D",
"'+	c #540300",
")+	c #731907",
"!+	c #ACB46B",
"~+	c #D2BF63",
"{+	c #483816",
"]+	c #6F5604",
"^+	c #674D3A",
"/+	c #96814A",
"(+	c #371214",
"_+	c #968659",
":+	c #A99E4D",
"<+	c #500000",
"[+	c #907741",
"}+	c #B79E59",
"|+	c #846716",
"1+	c #3E2D0C",
"2+	c #331E10",
"3+	c #F5F3E6",
"4+	c #543D10",
"5+	c #5A0100",
"6+	c #3D2D15",
"7+	c #0A2933",
"8+	c #642D00",
"9+	c #2B0910",
"0+	c #210808",
"a+	c #503C17",
"b+	c #693708",
"c+	c #755013",
"d+	c #BAC6A4",
"e+	c #491D08",
"f+	c #2C110D",
"g+	c #3E311A",
"h+	c #603B0B",
"i+	c #726245",
"j+	c #6B4911",
"k+	c #382911",
"l+	c #325A40",
"m+	c #030C01",
". . . . . . . . . . . . . . . . . . . . . . . . . . . . . . . . . . . . . . . . . . . . . . . . . . ",
". . . . . . . . . . . . . . . . . . . . . . . . . . . . . . . . . . . . . . . . . . . . . . . . . . ",
". . . . . . . . . . . . . . . . . . . . . . . . . . . . . . . . . . . . . . . . . . . . . . . . . . ",
". . . . . . . . . . . . . . . . . . . . . . . . . . . . . . . . . . . . . . . . . . . . . . . . . . ",
". . . . . . . . . . . . . . . . . . . . . . . . . . . . . . . . . . . . . . . . . . . . . . . . . . ",
". . . . . . . . . . . . . . . . . . . . . . . . . . . . . . . . . . . . . . . . . . . . . . . . . . ",
". . . . . . . . . . . . . . . . . . . . . . . . . . . . . . . . . . . . . . . . . . . . . . . . . . ",
". . . . . . . . . . . . . . . . . . . . . . . . . . . . . . . . . . . . . . . . . . . . . . . . . . ",
". . . . . . . . . . . . . . . . . . . . . . . . . . . . . . . . . . . . . . . . . . . . . . . . . . ",
". . . . . . . . . . . . . . . . . . . . . . . . . . . . . . . . . . . . . . . . . . . . . . . . . . ",
". . . . . . . . . . . . . . . . . . . . . . . . . . . . . . . . . . . . . . . . . . . . . . . . . . ",
". . . . . . . . . . . . . . . . . . . . . . . . . . . . . . . + + @ + # $ . . . . . . . . . . . . . ",
". . . . . . . . . . . . . . . . . . . . . . . . . . . % & * * = * @ - ; > ; $ . . . . . . . . . . . ",
". . . . . . . . . . . . . . . . . . . . . . @ @ @ + , ' ) ! ~ { ] ^ / ( _ : < $ . . . . . . . . . . ",
". . . . . . . . . . . . . . . . . [ } & & & & | 1 ( 2 ; > 3 4 5 6 { ] 7 8 9 : 0 a . . . . . . . . . ",
". . . . . . . . . . . . . b 1 c 1 d e = * f ~ g * h ; i j < k l m n o p q r q - a . . . . . . . . . ",
". . . . . . . . . . . . s % t $ , a u 9 v ^ w x y z A B C D E F < < G H I J 2 . . . . . . . . . . . ",
". . . . . . . . . . . t K K L t ( M - N < O v O P Q R r S T S U A V W W . . . . . . . . . . . . . . ",
". . . . . . . . . . . X K * = Y Z M 9 `  ...R < +.E G k ..A @.#.$.#.%.&.*.. . . . . . . . . . . . . ",
". . . . . . . . . . . K = K =.L -.a ;.0 >.E r N 3 h e ,.$.'.X S ).!.~.{.].^.. . . . . . . . . . . . ",
". . . . . . . . . . /.K L X (.t d _.:.<.[.) ,.,.(.}.X ).L s S S S (.|.. 1.2.3.. . . . . . . . . . . ",
". . . . . . . . . . /.,.t 4.5.6.#.7.(.8.$.}.}.L . . . 9.0.(.&.S a.. b.c.. d.2.e.. . . . . . . . . . ",
". . . . . . . . . . b # f.W $.}.$.W } X |.. . . g.. 9.h.i.. . i.. g.b.g.j.k.e. .e.. . . . . . . . . ",
". . . . . . . . . . t 7.'.}.!.$.& l.!.m.n.o.p.. q.. r.. . h.9.f f s.f . . k.t.S u.&.. . . . . . . . ",
". . . . . . . . . . =.k.J J #.(.=.v.).w.&.(.q.|.x.^ 9.9.y.9.r.O s.o.m.T z.A.t.t.0.&.. . . . . . . . ",
". . . . . . . . . . /.7.B.%.&.} K l.C.D.(.w.E.x.o.F.= G.w.. 9.t T t.u.H.y.y./ i u.I.. . . . . . . . ",
". . . . . . . . . . /.4.J.m.K.r (.(.b.a.E.a.^ ] . . . f f L.M.N.O.P.Q.R.S.G.T._ u.L.. . . . . . . . ",
". . . . . . . . . . /.A U.J.B.d.V.. . . W.R c.:., X.Y.F Z.`.Q O.+.~.= T. +.+++; z.@ . . . . . . . . ",
". . . . . . . . . . /.f.@+U.B.B.#+V.. R y.. _._.o.# R 4 = $+%+&+*+$+S.=+-+;+++>+X.@ . . . . . . . . ",
". . . . . . . . . . /.m ) | | m.'.#+&+S p ].1.5.,+o.'+$+)+$+I.!+~+T.S.=+=+ +T.' Y.{+. . . . . . . . ",
". . . . . . . . . . /.Q.) ]+}.=.m.#.N.^+>+/+M.,.(+_+T.=+ +z {.:+:+<+$+T.v ;+z H [+I . . . . . . . . ",
". . . . . . . . . . /.{+e 1 }+|+) L 9 1+H /+M.,.2+3+T..+;+z 4+9 :+G.'+z ! .+5+, u 6+. . . . . . . . ",
". . . . . . . . . . 7+8+9+L c {+9+v.Y.-.{+:.M.0+%.:.$+l P G.a+:._+'+! 5+'+! $+, ' 1 . . . . . . . . ",
". . . . . . . . . . . J.b+=.L 0+(+L 1.-.{+8 c+L a+d+K 4 .+G.{+8 i '+= G.n o ;.q e+/.. . . . . . . . ",
". . . . . . . . . . . . B.w.(+@+h ,.1.f+g+8 h+t !+I.f ^ )+5+1+i+_ J n o ;.q j+w.. . . . . . . . . . ",
". . . . . . . . . . . . . m.b+h U.L T f+6+>+J ).:.4+z f f <+1+u _ n o j+j+. . . . . . . . . . . . . ",
". . . . . . . . . . . . . . J.w.h ) `.f+k+M 1+) W.h G.5+j+n 1+u u K.l+. . . . . . . . . . . . . . . ",
". . . . . . . . . . . . . . . m+h+v.I.U.1 H g+0+:.e+n o n j+c+{.. . . . . . . . . . . . . . . . . . ",
". . . . . . . . . . . . . . . . J.6.Q.,+1 a g+0+W.j+j+3 3 . . . . . . . . . . . . . . . . . . . . . ",
". . . . . . . . . . . . . . . . . m.{.(+1+a g+) j+W.K.. . . . . . . . . . . . . . . . . . . . . . . ",
". . . . . . . . . . . . . . . . . . X f+1 {.J 1+. K.. . . . . . . . . . . . . . . . . . . . . . . . ",
". . . . . . . . . . . . . . . . . . . {.J 1+. . . . . . . . . . . . . . . . . . . . . . . . . . . . ",
". . . . . . . . . . . . . . . . . . . . . . . . . . . . . . . . . . . . . . . . . . . . . . . . . . ",
". . . . . . . . . . . . . . . . . . . . . . . . . . . . . . . . . . . . . . . . . . . . . . . . . . ",
". . . . . . . . . . . . . . . . . . . . . . . . . . . . . . . . . . . . . . . . . . . . . . . . . . ",
". . . . . . . . . . . . . . . . . . . . . . . . . . . . . . . . . . . . . . . . . . . . . . . . . . ",
". . . . . . . . . . . . . . . . . . . . . . . . . . . . . . . . . . . . . . . . . . . . . . . . . . ",
". . . . . . . . . . . . . . . . . . . . . . . . . . . . . . . . . . . . . . . . . . . . . . . . . . ",
". . . . . . . . . . . . . . . . . . . . . . . . . . . . . . . . . . . . . . . . . . . . . . . . . . ",
". . . . . . . . . . . . . . . . . . . . . . . . . . . . . . . . . . . . . . . . . . . . . . . . . . "};
