/* XPM */
static char * F:\sprite\1\playerright_xpm[] = {
"50 50 691 2",
"  	c #000000",
". 	c #100A02",
"+ 	c #4C460A",
"@ 	c #4D4D00",
"# 	c #30230C",
"$ 	c #AC9E2E",
"% 	c #AEAB22",
"& 	c #150903",
"* 	c #67502D",
"= 	c #6E5C34",
"- 	c #020102",
"; 	c #503920",
"> 	c #634626",
", 	c #020101",
"' 	c #53401D",
") 	c #664F23",
"! 	c #020201",
"~ 	c #503820",
"{ 	c #624427",
"] 	c #533E1D",
"^ 	c #654D23",
"/ 	c #523C1E",
"( 	c #644A25",
"_ 	c #020202",
": 	c #513A21",
"< 	c #634726",
"[ 	c #040202",
"} 	c #070403",
"| 	c #030201",
"1 	c #040203",
"2 	c #544020",
"3 	c #664E22",
"4 	c #0B0606",
"5 	c #3C2C24",
"6 	c #4B392F",
"7 	c #2D211D",
"8 	c #180E0E",
"9 	c #5C422B",
"0 	c #20150F",
"a 	c #7E665C",
"b 	c #92786C",
"c 	c #5A473B",
"d 	c #3B2A26",
"e 	c #564123",
"f 	c #2E2118",
"g 	c #957D73",
"h 	c #B59286",
"i 	c #7B6050",
"j 	c #584138",
"k 	c #584226",
"l 	c #0F0702",
"m 	c #6F584B",
"n 	c #947766",
"o 	c #866C5B",
"p 	c #645146",
"q 	c #573F26",
"r 	c #181818",
"s 	c #65666A",
"t 	c #9E8D8C",
"u 	c #A27D70",
"v 	c #6D5549",
"w 	c #5A463A",
"x 	c #664E30",
"y 	c #090909",
"z 	c #595959",
"A 	c #717174",
"B 	c #555357",
"C 	c #4E4853",
"D 	c #302D3F",
"E 	c #352C2B",
"F 	c #70513E",
"G 	c #614426",
"H 	c #666666",
"I 	c #9F9FA1",
"J 	c #56566E",
"K 	c #515166",
"L 	c #6D6D77",
"M 	c #707074",
"N 	c #6B6A69",
"O 	c #6C563D",
"P 	c #654C22",
"Q 	c #A4A1A1",
"R 	c #ACACB7",
"S 	c #2B2B8A",
"T 	c #2D2D83",
"U 	c #201F6D",
"V 	c #686887",
"W 	c #6D6E72",
"X 	c #847E80",
"Y 	c #483222",
"Z 	c #7E7677",
"` 	c #5A587C",
" .	c #4242BC",
"..	c #2F2F91",
"+.	c #2A2B7F",
"@.	c #29298F",
"#.	c #3A3978",
"$.	c #66656C",
"%.	c #080C0D",
"&.	c #050004",
"*.	c #060004",
"=.	c #010001",
"-.	c #261E11",
";.	c #816C5D",
">.	c #8C7065",
",.	c #786674",
"'.	c #504B84",
").	c #4242B4",
"!.	c #3A3AAC",
"~.	c #292985",
"{.	c #4E3942",
"].	c #5B3D23",
"^.	c #040003",
"/.	c #070005",
"(.	c #080006",
"_.	c #0D060B",
":.	c #1A1619",
"<.	c #100A0F",
"[.	c #080207",
"}.	c #2A2829",
"|.	c #5A5A5A",
"1.	c #4F3A32",
"2.	c #A38275",
"3.	c #7D6153",
"4.	c #1D1834",
"5.	c #31308A",
"6.	c #4949BD",
"7.	c #3535A0",
"8.	c #202174",
"9.	c #534044",
"0.	c #664F21",
"a.	c #030002",
"b.	c #030001",
"c.	c #3E3C3D",
"d.	c #4A494A",
"e.	c #5C5C5C",
"f.	c #888888",
"g.	c #898889",
"h.	c #6E6D6E",
"i.	c #646464",
"j.	c #32251A",
"k.	c #79594C",
"l.	c #A18072",
"m.	c #37241B",
"n.	c #050452",
"o.	c #28288F",
"p.	c #2B2B91",
"q.	c #202070",
"r.	c #513B5B",
"s.	c #634723",
"t.	c #423D3C",
"u.	c #ADAAAC",
"v.	c #C9C8C9",
"w.	c #CFCCCD",
"x.	c #D4D4D7",
"y.	c #D9D6DC",
"z.	c #E3E1E3",
"A.	c #E1E1E1",
"B.	c #E4E4E4",
"C.	c #131212",
"D.	c #72625F",
"E.	c #887368",
"F.	c #AAA2A2",
"G.	c #847F8B",
"H.	c #19196A",
"I.	c #2F2F8E",
"J.	c #1B172D",
"K.	c #5A464F",
"L.	c #654A23",
"M.	c #000004",
"N.	c #0B070A",
"O.	c #7D7D80",
"P.	c #CAC8CA",
"Q.	c #EBE7E9",
"R.	c #F7F6F7",
"S.	c #F8F5F5",
"T.	c #F8F8FC",
"U.	c #FDFDFF",
"V.	c #FFFFFF",
"W.	c #F1F1F1",
"X.	c #575656",
"Y.	c #222222",
"Z.	c #96949A",
"`.	c #C2C1C7",
" +	c #D7D6DA",
".+	c #B3B1B4",
"++	c #5F5F66",
"@+	c #1A1748",
"#+	c #191319",
"$+	c #36272A",
"%+	c #372115",
"&+	c #050006",
"*+	c #292728",
"=+	c #BFBFBF",
"-+	c #EBEBEC",
";+	c #FEFEFF",
">+	c #F1F1F2",
",+	c #605F64",
"'+	c #040404",
")+	c #050505",
"!+	c #0A0A0A",
"~+	c #030303",
"{+	c #434343",
"]+	c #6B6863",
"^+	c #B0AFB0",
"/+	c #D1D0D1",
"(+	c #C0BDBF",
"_+	c #DFDFE3",
":+	c #9E9C9C",
"<+	c #2D2A2F",
"[+	c #150E15",
"}+	c #030022",
"|+	c #090208",
"1+	c #5E5E5E",
"2+	c #F7F7F7",
"3+	c #FBFBFD",
"4+	c #F8F8FB",
"5+	c #EFEFEF",
"6+	c #313134",
"7+	c #060606",
"8+	c #191919",
"9+	c #131313",
"0+	c #323232",
"a+	c #353535",
"b+	c #4D4D4D",
"c+	c #484848",
"d+	c #696969",
"e+	c #7F7F7F",
"f+	c #E0E0E1",
"g+	c #CFCFD7",
"h+	c #1E1D23",
"i+	c #7B6460",
"j+	c #B08F81",
"k+	c #765A50",
"l+	c #2E201E",
"m+	c #000014",
"n+	c #000018",
"o+	c #27272B",
"p+	c #A6A6A6",
"q+	c #FCFCFC",
"r+	c #FEFEFE",
"s+	c #EDEDEE",
"t+	c #E5E5E6",
"u+	c #FCFBFD",
"v+	c #F6F6F6",
"w+	c #929299",
"x+	c #232423",
"y+	c #5F5F5F",
"z+	c #545454",
"A+	c #4E4E4E",
"B+	c #585858",
"C+	c #6D6D6C",
"D+	c #959595",
"E+	c #B4B4B4",
"F+	c #D7D7D9",
"G+	c #C2C2C8",
"H+	c #292B3A",
"I+	c #8D7B6F",
"J+	c #8B695A",
"K+	c #5B474A",
"L+	c #333244",
"M+	c #000019",
"N+	c #100F1E",
"O+	c #828282",
"P+	c #F0EEF1",
"Q+	c #9E9EA6",
"R+	c #7F7F86",
"S+	c #C6C3CF",
"T+	c #F7F6FB",
"U+	c #FBFBFC",
"V+	c #B9B9BD",
"W+	c #030003",
"X+	c #2D2C2D",
"Y+	c #747474",
"Z+	c #6D6D6D",
"`+	c #6C6C6C",
" @	c #757575",
".@	c #9B9B9C",
"+@	c #B3B3B9",
"@@	c #D6D6D8",
"#@	c #DBDBDB",
"$@	c #C8C8CC",
"%@	c #878787",
"&@	c #00002D",
"*@	c #000049",
"=@	c #5E4653",
"-@	c #6A687B",
";@	c #929198",
">@	c #12100D",
",@	c #404040",
"'@	c #B8B4B8",
")@	c #F7F6FA",
"!@	c #D0CBD0",
"~@	c #3E3E43",
"{@	c #31322B",
"]@	c #D9D6DE",
"^@	c #E1DFDF",
"/@	c #D6D7DA",
"(@	c #040502",
"_@	c #171316",
":@	c #868686",
"<@	c #C6C6C6",
"[@	c #AEAEAE",
"}@	c #A5A5A4",
"|@	c #C0C0C0",
"1@	c #DBDBDD",
"2@	c #D7D7DB",
"3@	c #CCCCCE",
"4@	c #898989",
"5@	c #2C2622",
"6@	c #272013",
"7@	c #211A1D",
"8@	c #02002E",
"9@	c #9A9AA5",
"0@	c #C9C9CD",
"a@	c #CFCFD3",
"b@	c #747473",
"c@	c #414141",
"d@	c #A9A3AA",
"e@	c #E9E8F0",
"f@	c #F4F0F6",
"g@	c #FAFAFD",
"h@	c #DDDDE4",
"i@	c #A0A0A4",
"j@	c #040422",
"k@	c #1E1E6E",
"l@	c #7C7B8B",
"m@	c #9A8C85",
"n@	c #A8A7AB",
"o@	c #494446",
"p@	c #4C4B4B",
"q@	c #BEBEC2",
"r@	c #D4D4DB",
"s@	c #BDBDC5",
"t@	c #B2B2B7",
"u@	c #CCCCCC",
"v@	c #B7B7BB",
"w@	c #A4A4A7",
"x@	c #AB8A76",
"y@	c #988355",
"z@	c #815E46",
"A@	c #815E45",
"B@	c #826754",
"C@	c #877D7F",
"D@	c #B9B9B9",
"E@	c #DCDCDD",
"F@	c #BBBBBB",
"G@	c #5B5B5C",
"H@	c #4C495A",
"I@	c #E5E4EA",
"J@	c #DBDBDF",
"K@	c #F3F3F5",
"L@	c #B2B1B8",
"M@	c #454550",
"N@	c #202061",
"O@	c #2A2A83",
"P@	c #242480",
"Q@	c #29287F",
"R@	c #403979",
"S@	c #383837",
"T@	c #1C1A1B",
"U@	c #020002",
"V@	c #0C040B",
"W@	c #2C2A31",
"X@	c #919091",
"Y@	c #C2C2C2",
"Z@	c #D2D2D2",
"`@	c #EEEEEF",
" #	c #F0F0F5",
".#	c #ECE9EE",
"+#	c #E2E0EE",
"@#	c #BDAAA0",
"##	c #B3977F",
"$#	c #B08E69",
"%#	c #B09266",
"&#	c #B0866C",
"*#	c #AD856E",
"=#	c #938E8D",
"-#	c #D5D2D5",
";#	c #DCD8DC",
">#	c #7A7A7C",
",#	c #22213C",
"'#	c #8782A3",
")#	c #BFBCCC",
"!#	c #D5D1DF",
"~#	c #D5D5E1",
"{#	c #847D92",
"]#	c #1C1A46",
"^#	c #393676",
"/#	c #423D7F",
"(#	c #1D1D6E",
"_#	c #262682",
":#	c #24247C",
"<#	c #1A161E",
"[#	c #3F3C56",
"}#	c #9999A0",
"|#	c #CCCCCB",
"1#	c #F0F0F0",
"2#	c #F5F5F8",
"3#	c #E9E9F3",
"4#	c #CBCBE6",
"5#	c #807FC6",
"6#	c #B0AFC9",
"7#	c #846964",
"8#	c #865E43",
"9#	c #875C3E",
"0#	c #865938",
"a#	c #7F573E",
"b#	c #896D63",
"c#	c #CDCBCE",
"d#	c #F3F2F6",
"e#	c #A3A2A9",
"f#	c #35313B",
"g#	c #806979",
"h#	c #3F40B1",
"i#	c #3333A5",
"j#	c #37368C",
"k#	c #2A2A8A",
"l#	c #272783",
"m#	c #655C74",
"n#	c #796E63",
"o#	c #0C0E51",
"p#	c #262685",
"q#	c #1E1E6F",
"r#	c #201619",
"s#	c #584346",
"t#	c #817889",
"u#	c #AAAAC4",
"v#	c #BEBEDC",
"w#	c #A5A5CF",
"x#	c #7A7AC3",
"y#	c #3C3BA7",
"z#	c #5B5B91",
"A#	c #E6E5E8",
"B#	c #B8998C",
"C#	c #8C5937",
"D#	c #8C5A39",
"E#	c #8F5A39",
"F#	c #7E6968",
"G#	c #D6D2DE",
"H#	c #F5F3FD",
"I#	c #A8A7B1",
"J#	c #313142",
"K#	c #646482",
"L#	c #4B4AA4",
"M#	c #3333A4",
"N#	c #404086",
"O#	c #313188",
"P#	c #282886",
"Q#	c #2F2F7F",
"R#	c #302F81",
"S#	c #0D0D45",
"T#	c #17175C",
"U#	c #000003",
"V#	c #221A17",
"W#	c #7C6D4B",
"X#	c #81716F",
"Y#	c #3536A4",
"Z#	c #555496",
"`#	c #79739E",
" $	c #4343B9",
".$	c #3F3EA6",
"+$	c #56558C",
"@$	c #B8B7BF",
"#$	c #CBBEB8",
"$$	c #915836",
"%$	c #905A39",
"&$	c #704D39",
"*$	c #363264",
"=$	c #8786BE",
"-$	c #AEAEC0",
";$	c #71707C",
">$	c #2A295B",
",$	c #757584",
"'$	c #6463A1",
")$	c #46459D",
"!$	c #707092",
"~$	c #42429C",
"{$	c #2C2C8F",
"]$	c #1D1D64",
"^$	c #2E2E97",
"/$	c #171754",
"($	c #0C0415",
"_$	c #322E49",
":$	c #413D77",
"<$	c #4848B7",
"[$	c #5454C1",
"}$	c #5755BF",
"|$	c #4848BA",
"1$	c #4141B0",
"2$	c #4444AF",
"3$	c #8A8997",
"4$	c #DDD3D8",
"5$	c #8C5834",
"6$	c #8D5A39",
"7$	c #402B49",
"8$	c #24247E",
"9$	c #373799",
"0$	c #595974",
"a$	c #585761",
"b$	c #494958",
"c$	c #B4B3BE",
"d$	c #9392B4",
"e$	c #5857A0",
"f$	c #8C8B9D",
"g$	c #4A4A9D",
"h$	c #2D2D91",
"i$	c #02021A",
"j$	c #0D0D3B",
"k$	c #04041E",
"l$	c #06000E",
"m$	c #10104B",
"n$	c #2A2A82",
"o$	c #4949B2",
"p$	c #5252C8",
"q$	c #4E4EC3",
"r$	c #7E7DAC",
"s$	c #8988B2",
"t$	c #4D4DB1",
"u$	c #7B7B90",
"v$	c #BBB7BC",
"w$	c #8B5836",
"x$	c #39244E",
"y$	c #282887",
"z$	c #3E3D8E",
"A$	c #6C6B7D",
"B$	c #6A6A73",
"C$	c #5F5F63",
"D$	c #EEEBF7",
"E$	c #CECEE0",
"F$	c #807FB3",
"G$	c #838392",
"H$	c #40408F",
"I$	c #303084",
"J$	c #01000F",
"K$	c #1D1B59",
"L$	c #353383",
"M$	c #4B4872",
"N$	c #5252C0",
"O$	c #5C5BBA",
"P$	c #A2A0AB",
"Q$	c #A4A4CF",
"R$	c #5757A3",
"S$	c #3A394F",
"T$	c #4F4446",
"U$	c #855738",
"V$	c #8D5A38",
"W$	c #3C2A63",
"X$	c #333394",
"Y$	c #484870",
"Z$	c #71717C",
"`$	c #51515C",
" %	c #606066",
".%	c #C8C8CF",
"+%	c #515154",
"@%	c #060213",
"#%	c #232261",
"$%	c #303086",
"%%	c #4D4C8F",
"&%	c #4D4DC1",
"*%	c #5F5D9A",
"=%	c #888490",
"-%	c #77769C",
";%	c #444463",
">%	c #191917",
",%	c #2D1A0D",
"'%	c #815539",
")%	c #845537",
"!%	c #3E3080",
"~%	c #3A3AA0",
"{%	c #00000A",
"]%	c #2C2C2E",
"^%	c #D8D7E0",
"/%	c #F5F4FC",
"(%	c #C4C4CA",
"_%	c #525254",
":%	c #08010A",
"<%	c #110D37",
"[%	c #3A3950",
"}%	c #9E9EAA",
"|%	c #CACAE3",
"1%	c #A7A7B6",
"2%	c #83838A",
"3%	c #3D3D3F",
"4%	c #1C0E06",
"5%	c #684228",
"6%	c #8D5B37",
"7%	c #5E3B36",
"8%	c #252168",
"9%	c #1F1F6F",
"0%	c #000008",
"a%	c #292929",
"b%	c #C6C6CA",
"c%	c #EBEAF4",
"d%	c #BDBDC2",
"e%	c #10090E",
"f%	c #221F21",
"g%	c #7B7B7B",
"h%	c #CECED4",
"i%	c #ECE8F5",
"j%	c #95949C",
"k%	c #2E2E31",
"l%	c #180C04",
"m%	c #5C3A27",
"n%	c #412837",
"o%	c #080949",
"p%	c #03033C",
"q%	c #020226",
"r%	c #000002",
"s%	c #232325",
"t%	c #B5B5BB",
"u%	c #E2E2EC",
"v%	c #B2B1BE",
"w%	c #4E4E51",
"x%	c #484748",
"y%	c #B1B1B3",
"z%	c #CACACE",
"A%	c #DADAE1",
"B%	c #ABABB3",
"C%	c #2C2C2F",
"D%	c #0B0502",
"E%	c #070305",
"F%	c #01012C",
"G%	c #121248",
"H%	c #1E1E60",
"I%	c #020228",
"J%	c #171516",
"K%	c #948E91",
"L%	c #E4E4E8",
"M%	c #ACACB2",
"N%	c #424242",
"O%	c #3C3B3B",
"P%	c #AFAFAF",
"Q%	c #E5E5E8",
"R%	c #B0B0B7",
"S%	c #333336",
"T%	c #00000F",
"U%	c #000010",
"V%	c #080808",
"W%	c #5E5F61",
"X%	c #C5C5CD",
"Y%	c #B6B6BC",
"Z%	c #3E3E3D",
"`%	c #242424",
" &	c #8E8E8E",
".&	c #CACACC",
"+&	c #707072",
"@&	c #242426",
"#&	c #99999F",
"$&	c #292928",
"%&	c #1D1D1D",
"&&	c #808083",
"*&	c #B8B5BC",
"=&	c #656166",
"-&	c #302C2D",
";&	c #A09CA1",
">&	c #9A9AA0",
",&	c #6D6D6E",
"'&	c #D3D2D3",
")&	c #848384",
"!&	c #4B4A4B",
"~&	c #CDCDCD",
"{&	c #BBBBBC",
"]&	c #343434",
"^&	c #C1C1C4",
"/&	c #737377",
"(&	c #151515",
"_&	c #A2A1A3",
":&	c #C2C2C4",
"<&	c #131315",
"[&	c #454546",
"}&	c #6B6B6D",
"|&	c #313131",
"1&	c #080407",
"2&	c #807D86",
"3&	c #ACA9B5",
"4&	c #2D2D32",
"5&	c #202025",
"6&	c #3D3D41",
"7&	c #282527",
"8&	c #0C0A0B",
"9&	c #292A2D",
"0&	c #141217",
"a&	c #18131D",
"b&	c #100F12",
"c&	c #010101",
"d&	c #121115",
"e&	c #010000",
"f&	c #030306",
"g&	c #020203",
"h&	c #030203",
"                                                  . + @                                             ",
"                                                  # $ %                                             ",
"                                                  & * =                                             ",
"                                                  - ; >                                             ",
"                                                  , ' )                                             ",
"                                                  ! ~ {                                             ",
"                                                  , ] ^                                             ",
"                                                  ! / (                                             ",
"                                                  _ : <                                             ",
"                                            [ } | 1 2 3                                             ",
"                                          4 5 6 7 8 9 {                                             ",
"                                          0 a b c d e ^                                             ",
"                                          f g h i j k (                                             ",
"                                          l m n o p q >                                             ",
"                                        r s t u v w x 3                                             ",
"                                      y z A B C D E F G                                             ",
"                                      H I J K L M N O P                                             ",
"                                      Q R S T U V W X Y                                             ",
"                                      Z `  ...+.@.#.$.%.            &.*.*.*.*.=.                    ",
"                                    -.;.>.,.'.).!.~.{.].        ^./.(._.:.:.<.[.}.|.                ",
"                                    1.2.3.4.5.6.7.8.9.0.    =.a.b.c.d.e.f.g.h.z i.|.                ",
"                                    j.k.l.m.n.o.p.q.r.s.  a.*.  t.u.v.w.x.y.z.A.B.C.                ",
"                                      D.E.F.G.H.I.J.K.L.M.*.N.O.P.Q.R.S.T.T.U.V.W.X.  =.            ",
"                                    Y.Z.`. +.+++@+#+$+%+&+*+=+-+;+V.V.V.V.V.V.V.>+,+  =.            ",
"                          '+)+!+~+{+]+^+/+(+_+:+<+[+}+/.|+1+2+V.V.V.V.V.3+4+V.V.5+6+                ",
"                    7+8+9+0+a+b+c+d+e+f+g+h+i+j+k+l+m+n+o+p+q+V.V.V.V.r+s+t+u+V.v+w+                ",
"                    x+y+z z+A+B+C+D+E+F+G+  H+I+J+K+L+M+N+O+q+V.V.V.V.P+Q+R+S+T+U+V+                ",
"                  W+X+Y+Z+`+ @.@+@@@#@$@%@  &@*@=@-@;@>@,@'@)@V.V.V.4+!@~@  {@]@^@/@(@              ",
"              a.*.(._@:@<@[@}@|@1@2@3@4@5@6@7@8@9@0@a@b@c@d@e@f@g@V.h@i@  j@k@l@m@n@o@              ",
"              ^.(.(./.p@q@r@s@t@u@v@w@x@y@z@A@B@C@D@E@F@G@H@a@I@J@K@L@M@N@O@P@Q@R@S@T@              ",
"            U@(.(.(.V@W@X@Y@Z@`@ #.#+#@###$#%#&#*#=#-#;#>#,#'#)#!#~#{#]#^#/#(#_#:#                  ",
"            U@(.(.(.<#[#}#|#1#2#3#4#5#6#7#8#9#0#a#b#c#d#e#f#g#h#i#j#k#l#m#n#o#p#q#                  ",
"            U@(.(.(.r#s#t#u#v#w#x#y#z#A#B#C#D#E#D#F#G#H#I#J#K#L#M#N#O#P#Q#R#S#T#U#                  ",
"            U@(.(.(.V#W#X#Y#Z#`# $.$+$@$#$$$E#%$&$*$=$-$;$>$,$'$)$!$~${$]$^$/$                      ",
"            U@(.(.(.($_$:$<$[$}$|$1$2$3$4$5$6$6$7$8$9$0$a$b$c$d$e$f$g$h$i$j$k$                      ",
"              ^.(.(.l$m$n$o$p$q$r$s$t$u$v$w$D#6$x$y$z$A$B$C$D$E$F$G$H$I$                            ",
"              ^.(.(.J$K$L$M$N$O$P$Q$R$S$T$U$D#V$W$X$Y$Z$`$ %K@3+.%+%                                ",
"              ^.(.(.@%#%$%%%&%*%=%-%;%>%,%'%6$)%!%~%{%    ]%^%/%(%_%                                ",
"              ^.(.(.:%<%[%}%|%1%2%3%    4%5%6%7%8%9%0%    a%b%c%d%_%                                ",
"              ^.(.(.e%f%g%h%i%j%k%        l%m%n%o%p%q%r%  s%t%u%v%w%                                ",
"              ^.(.(.x%y%z%A%B%C%            D%E%F%G%H%I%  J%K%L%M%N%                                ",
"            =.&.(.*.O%P%Q%R%S%                      T%U%  V%W%X%Y%Z%                                ",
"            =.^.^.  `% &.&+&                                @&#&M%$&                                ",
"                    %&&&*&=&                                -&;&>&                                  ",
"                      ,&'&)&                                !&~&{&]&                                ",
"                      d+^&/&                                (&_&:&<&                                ",
"                      [&}&|&1&                                2&3&4&                                ",
"                      5&6&7&8&                                9&~@0&=.                              ",
"                          a&b&c&                                d&<&_                               ",
"                        e&f&~+                                  g&h&                                "};
