/* XPM */
static char * F:\sprite\1\playerup_xpm[] = {
"50 50 477 2",
"  	c #000000",
". 	c #856D2A",
"+ 	c #E1DF1E",
"@ 	c #4E341B",
"# 	c #8F7A48",
"$ 	c #21170E",
"% 	c #7B5B2F",
"& 	c #23190D",
"* 	c #7D5F2E",
"= 	c #201711",
"- 	c #7A5632",
"; 	c #241A11",
"> 	c #7E622D",
", 	c #211811",
"' 	c #7B5831",
") 	c #23190E",
"! 	c #7C5C2F",
"~ 	c #24190F",
"{ 	c #231711",
"] 	c #040301",
"^ 	c #302718",
"/ 	c #3B2E22",
"( 	c #241D11",
"_ 	c #050402",
": 	c #100A06",
"< 	c #4F3D31",
"[ 	c #795E4F",
"} 	c #45352C",
"| 	c #000001",
"1 	c #231811",
"2 	c #36281E",
"3 	c #6C5448",
"4 	c #A18373",
"5 	c #645245",
"6 	c #070006",
"7 	c #010001",
"8 	c #241911",
"9 	c #7C5C30",
"0 	c #32251B",
"a 	c #60483F",
"b 	c #957666",
"c 	c #654D41",
"d 	c #050104",
"e 	c #010000",
"f 	c #624A3F",
"g 	c #A17D6E",
"h 	c #624D3F",
"i 	c #0F1013",
"j 	c #515051",
"k 	c #717171",
"l 	c #939393",
"m 	c #A4A2A2",
"n 	c #B7B3B2",
"o 	c #B0AFAE",
"p 	c #8C8C8C",
"q 	c #5A5A5B",
"r 	c #37373F",
"s 	c #241910",
"t 	c #7E612B",
"u 	c #797A7A",
"v 	c #E2E2E2",
"w 	c #EEEEF3",
"x 	c #EFEFF5",
"y 	c #EDEDF3",
"z 	c #E1E1E9",
"A 	c #E8E8EC",
"B 	c #DBDBDF",
"C 	c #B8B8BF",
"D 	c #44444A",
"E 	c #050511",
"F 	c #1E120A",
"G 	c #7A5830",
"H 	c #8E8E8D",
"I 	c #FAFAF9",
"J 	c #FFFFFF",
"K 	c #FEFEFE",
"L 	c #F4F4F6",
"M 	c #FAFAFC",
"N 	c #F4F4F8",
"O 	c #A5A5A7",
"P 	c #3F404D",
"Q 	c #1C100A",
"R 	c #7D5D33",
"S 	c #625C58",
"T 	c #D8D6D2",
"U 	c #FFFFFE",
"V 	c #E3E2E3",
"W 	c #635E66",
"X 	c #1C1108",
"Y 	c #7F6030",
"Z 	c #564037",
"` 	c #CAC0C0",
" .	c #FDFDFF",
"..	c #FDFDFD",
"+.	c #B9B7B1",
"@.	c #6E5447",
"#.	c #0F0904",
"$.	c #31241C",
"%.	c #403634",
"&.	c #5F5851",
"*.	c #675046",
"=.	c #D3C9C6",
"-.	c #FCFCFC",
";.	c #A49A97",
">.	c #95776A",
",.	c #211610",
"'.	c #2F211A",
").	c #4E3C31",
"!.	c #68584E",
"~.	c #846354",
"{.	c #DACDCA",
"].	c #FFFEFE",
"^.	c #EAE3E2",
"/.	c #7D6A62",
"(.	c #58473D",
"_.	c #1F1610",
":.	c #201A0E",
"<.	c #44352B",
"[.	c #756559",
"}.	c #86726D",
"|.	c #E7DFDD",
"1.	c #FAFAFA",
"2.	c #CCC1BF",
"3.	c #88766E",
"4.	c #3F3B39",
"5.	c #030201",
"6.	c #201710",
"7.	c #7C5B2C",
"8.	c #939494",
"9.	c #FBFBFD",
"0.	c #F9F7FE",
"a.	c #FFFEFF",
"b.	c #FEFEFF",
"c.	c #E0DFE2",
"d.	c #9C9595",
"e.	c #5E5656",
"f.	c #090604",
"g.	c #735537",
"h.	c #626269",
"i.	c #CFCFD6",
"j.	c #F2F2F7",
"k.	c #F5F5FA",
"l.	c #ECECF3",
"m.	c #E4E3EA",
"n.	c #F2F2F3",
"o.	c #ECECF1",
"p.	c #C1C1C4",
"q.	c #6B666A",
"r.	c #312C2B",
"s.	c #040201",
"t.	c #140F0C",
"u.	c #291A3A",
"v.	c #41405E",
"w.	c #96969F",
"x.	c #B5B5B7",
"y.	c #C0C0C0",
"z.	c #BEBEBF",
"A.	c #AAAAAC",
"B.	c #A9A9AA",
"C.	c #A6A6A7",
"D.	c #B0B0B0",
"E.	c #B5B5B6",
"F.	c #A1A1A2",
"G.	c #4C4B53",
"H.	c #30241C",
"I.	c #130D08",
"J.	c #322D2F",
"K.	c #201F4C",
"L.	c #4C4C71",
"M.	c #8E8E95",
"N.	c #919191",
"O.	c #969696",
"P.	c #9C9C9C",
"Q.	c #858585",
"R.	c #808080",
"S.	c #7A7A7A",
"T.	c #90908F",
"U.	c #88878D",
"V.	c #555268",
"W.	c #2F2A2E",
"X.	c #100E0B",
"Y.	c #322D30",
"Z.	c #868080",
"`.	c #78768A",
" +	c #535278",
".+	c #747473",
"++	c #585858",
"@+	c #5D5D5D",
"#+	c #6B6B6B",
"$+	c #5E5E5E",
"%+	c #535353",
"&+	c #484848",
"*+	c #575757",
"=+	c #605C61",
"-+	c #696377",
";+	c #5E5D66",
">+	c #313130",
",+	c #030303",
"'+	c #817F80",
")+	c #B7B7B8",
"!+	c #ABAAB3",
"~+	c #63626D",
"{+	c #696969",
"]+	c #4E4E4E",
"^+	c #525252",
"/+	c #606060",
"(+	c #4F4F4F",
"_+	c #464644",
":+	c #3D3D3C",
"<+	c #3D3D3D",
"[+	c #4C4C4C",
"}+	c #3B3C3B",
"|+	c #6D6A6E",
"1+	c #838287",
"2+	c #69696A",
"3+	c #0B0C0C",
"4+	c #353535",
"5+	c #A09BA0",
"6+	c #BFBEC1",
"7+	c #828285",
"8+	c #616161",
"9+	c #525152",
"0+	c #282828",
"a+	c #3B3B3B",
"b+	c #4B4B4B",
"c+	c #353533",
"d+	c #32322D",
"e+	c #2F2F2E",
"f+	c #2C2B29",
"g+	c #3D3739",
"h+	c #564D50",
"i+	c #5A585F",
"j+	c #646465",
"k+	c #50464A",
"l+	c #474747",
"m+	c #A09FA0",
"n+	c #CECECF",
"o+	c #6D6D6F",
"p+	c #393939",
"q+	c #515151",
"r+	c #787878",
"s+	c #393839",
"t+	c #505050",
"u+	c #292828",
"v+	c #424141",
"w+	c #413F40",
"x+	c #484849",
"y+	c #65656B",
"z+	c #67666D",
"A+	c #090902",
"B+	c #252551",
"C+	c #3D3D86",
"D+	c #3D3C74",
"E+	c #494750",
"F+	c #81807E",
"G+	c #B2B2B2",
"H+	c #B9B9B9",
"I+	c #A6A6A6",
"J+	c #020000",
"K+	c #161417",
"L+	c #232424",
"M+	c #636363",
"N+	c #535352",
"O+	c #393531",
"P+	c #343437",
"Q+	c #171631",
"R+	c #17173C",
"S+	c #121217",
"T+	c #090949",
"U+	c #313192",
"V+	c #42427A",
"W+	c #C1C1C3",
"X+	c #DDDDDF",
"Y+	c #AEAEAF",
"Z+	c #151319",
"`+	c #28272B",
" @	c #6B6B6E",
".@	c #7C7C7F",
"+@	c #464342",
"@@	c #211D18",
"#@	c #1B193F",
"$@	c #141448",
"%@	c #010109",
"&@	c #050540",
"*@	c #353493",
"=@	c #605B65",
"-@	c #4B4B58",
";@	c #73738F",
">@	c #9797BE",
",@	c #ABABD3",
"'@	c #4C4B59",
")@	c #060003",
"!@	c #0A060D",
"~@	c #1F1D2A",
"{@	c #595976",
"]@	c #6E6E85",
"^@	c #424255",
"/@	c #372E2A",
"(@	c #2F2A60",
"_@	c #181851",
":@	c #01010A",
"<@	c #010133",
"[@	c #28277F",
"}@	c #362F45",
"|@	c #4D4A4A",
"1@	c #64618C",
"2@	c #4747BB",
"3@	c #3939A5",
"4@	c #090227",
"5@	c #080006",
"6@	c #060006",
"7@	c #090620",
"8@	c #222276",
"9@	c #433D65",
"0@	c #867953",
"a@	c #090129",
"b@	c #272564",
"c@	c #111247",
"d@	c #000006",
"e@	c #000028",
"f@	c #1E1E73",
"g@	c #04053E",
"h@	c #313051",
"i@	c #4F4E97",
"j@	c #4F4FC3",
"k@	c #3C3C9D",
"l@	c #0D0520",
"m@	c #080005",
"n@	c #080416",
"o@	c #2C2C80",
"p@	c #2F2D76",
"q@	c #4B4654",
"r@	c #00002E",
"s@	c #222264",
"t@	c #0B0B38",
"u@	c #000003",
"v@	c #000009",
"w@	c #00000C",
"x@	c #090939",
"y@	c #25257C",
"z@	c #060641",
"A@	c #222266",
"B@	c #4545AA",
"C@	c #4C4CB6",
"D@	c #3A3A97",
"E@	c #0D051F",
"F@	c #01000D",
"G@	c #3A3A8B",
"H@	c #2C2C85",
"I@	c #31316F",
"J@	c #030335",
"K@	c #211F50",
"L@	c #0C0B30",
"M@	c #000005",
"N@	c #000002",
"O@	c #000008",
"P@	c #02022E",
"Q@	c #0A0A48",
"R@	c #1F1F72",
"S@	c #31318A",
"T@	c #0B0C3B",
"U@	c #21203A",
"V@	c #3D3C62",
"W@	c #47468D",
"X@	c #323185",
"Y@	c #0B041B",
"Z@	c #585786",
"`@	c #3F3F8C",
" #	c #62627B",
".#	c #000026",
"+#	c #111144",
"@#	c #141441",
"##	c #060623",
"$#	c #02021C",
"%#	c #020227",
"&#	c #101048",
"*#	c #191961",
"=#	c #302C6E",
"-#	c #070633",
";#	c #171747",
">#	c #56557B",
",#	c #5151A0",
"'#	c #2C2B73",
")#	c #0B0315",
"!#	c #01000C",
"~#	c #4D4C88",
"{#	c #363691",
"]#	c #3F3E6E",
"^#	c #000020",
"/#	c #14133B",
"(#	c #12123A",
"_#	c #090927",
":#	c #030320",
"<#	c #130D05",
"[#	c #181722",
"}#	c #181834",
"|#	c #77778A",
"1#	c #8786A2",
"2#	c #48475B",
"3#	c #0D060E",
"4#	c #2E2D2F",
"5#	c #3C3A5D",
"6#	c #64628C",
"7#	c #55536E",
"8#	c #03040B",
"9#	c #0C0B13",
"0#	c #040404",
"a#	c #4D4D4D",
"b#	c #AEAEB3",
"c#	c #C8C8D0",
"d#	c #7B7B82",
"e#	c #161117",
"f#	c #5E5E5F",
"g#	c #3A393B",
"h#	c #8C8B94",
"i#	c #6E6D70",
"j#	c #010101",
"k#	c #3E3E3E",
"l#	c #9E9E9E",
"m#	c #C2BCC2",
"n#	c #ABA9AB",
"o#	c #252324",
"p#	c #7F7F85",
"q#	c #47474A",
"r#	c #8B8B8D",
"s#	c #67676E",
"t#	c #858187",
"u#	c #C1C0C4",
"v#	c #CBCBCE",
"w#	c #38383C",
"x#	c #070004",
"y#	c #130E11",
"z#	c #919093",
"A#	c #68686C",
"B#	c #78787E",
"C#	c #8C8C8F",
"D#	c #E5E5EC",
"E#	c #D5D5DA",
"F#	c #4F4F53",
"G#	c #4A4A4A",
"H#	c #9F9FA2",
"I#	c #86868A",
"J#	c #8A8A89",
"K#	c #8B8B8A",
"L#	c #E0E0E6",
"M#	c #909092",
"N#	c #2E2D2D",
"O#	c #050003",
"P#	c #323131",
"Q#	c #75757A",
"R#	c #848489",
"S#	c #898989",
"T#	c #D7D7DE",
"U#	c #626266",
"V#	c #15141D",
"W#	c #070005",
"X#	c #0A0609",
"Y#	c #181818",
"Z#	c #838389",
"`#	c #D5D5D8",
" $	c #5C5C5D",
".$	c #070708",
"+$	c #818182",
"@$	c #78787D",
"#$	c #BEBEC5",
"$$	c #505053",
"%$	c #848484",
"&$	c #757278",
"*$	c #40403F",
"=$	c #5A5A5C",
"-$	c #202021",
";$	c #4A494C",
">$	c #433A3E",
",$	c #030302",
"'$	c #1A1A20",
")$	c #070709",
"!$	c #19181E",
"                                      . +                                                           ",
"                                      @ #                                                           ",
"                                      $ %                                                           ",
"                                      & *                                                           ",
"                                      = -                                                           ",
"                                      ; >                                                           ",
"                                      , '                                                           ",
"                                      ) !                                                           ",
"                                      ~ *                                                           ",
"                                      { -       ] ^ / ( _                                           ",
"                                      ; >       : < [ } |                                           ",
"                                      1 '       2 3 4 5 6 7                                         ",
"                                      8 9       0 a b c d e                                         ",
"                                      8 *         f g h                                             ",
"                                      { - i j k l m n o p q r                                       ",
"                                      s t u v w x y z A B C D E                                     ",
"                                      F G H I J J K L M J N O P                                     ",
"                                      Q R S T J J J J J J U V W                                     ",
"                                      X Y Z `  .J J J J J ..+.@.#.                                  ",
"                                    $.%.&.*.=.J J J J J J -.;.>.,.                                  ",
"                                    '.).!.~.{.J J J J J J ].^./.(._.                                ",
"                                    :.<.[.}.|.J J J J J J J 1.2.3.4.5.                              ",
"                                      6.7.8.J J J J J 9.0.a.b.c.d.e.f.                              ",
"                                      $ g.h.i.j.b.b.k.l.m.n.o.p.q.r.s.                              ",
"                                      t.u.v.w.x.y.z.A.B.C.D.E.F.G.H.I.                              ",
"                                      J.K.L.M.N.O.P.Q.R.S.p T.U.V.W.X.                              ",
"                                    Y.Z.`. +.+++@+#+$+%+&+*+@+=+-+;+>+,+                            ",
"                                    '+)+!+~+{+]+^+/+(+_+:+<+[+}+|+1+2+3+                            ",
"                                  4+5+6+7+8+9+0+a+b+<+c+d+e+f+g+h+i+j+k+                            ",
"                                  l+m+n+o+&+p+q+S.r+s+%+$+t+u+v+w+x+y+z+                            ",
"                                  A+B+C+D+E+F+G+H+I+J+K+L+M+N+O+P+Q+R+S+                            ",
"                                    T+U+V+G.l W+X+Y+  Z+`+ @.@+@@@#@$@%@                            ",
"                                    &@*@=@-@;@>@,@'@)@!@~@{@]@^@/@(@_@:@                            ",
"                                    <@[@}@|@1@2@3@4@5@6@7@8@9@0@a@b@c@d@                            ",
"                                    e@f@g@h@i@j@k@l@5@m@n@o@p@q@r@s@t@u@                            ",
"                              | v@w@x@y@z@A@B@C@D@E@5@5@F@G@H@I@J@K@L@M@N@                          ",
"                              O@P@Q@R@S@T@U@V@W@X@Y@5@5@d@Z@`@ #.#+#@###$#                          ",
"                              M@%#&#*#=#-#;#>#,#'#)#5@5@!#~#{#]#^#/#(#_#:#                          ",
"                                      <#[#}#|#1#2#3#5@)@4#5#6#7#8#9#                                ",
"                                        0#a#b#c#d#e#5@  f#g#h#i#  j#                                ",
"                                          k#l#m#n#o#5@  p#q#r#s#                                    ",
"                                            t#u#v#w#x#y#z#A#B#                                      ",
"                                            C#D#E#F#  G#H#I#J#                                      ",
"                                            K#L#M#N#O#P#$+Q#R#                                      ",
"                                            S#T#U#V#W#X#Y#h.d#                                      ",
"                                            Z#`# $.$  0#,+r++$                                      ",
"                                            @$#$$$        %$&$                                      ",
"                                            *$=$-$        ;$>$                                      ",
"                                            ,$'$)$        !$N@                                      ",
"                                                                                                    "};
