/* XPM */
static char * F:\sprite\1\playerdown_xpm[] = {
"50 50 601 2",
"  	c #000000",
". 	c #1A1004",
"+ 	c #575307",
"@ 	c #3C3C00",
"# 	c #453015",
"$ 	c #C2B830",
"% 	c #8B8919",
"& 	c #1F0E05",
"* 	c #786137",
"= 	c #574828",
"- 	c #000003",
"; 	c #644728",
"> 	c #4E361C",
", 	c #000004",
"' 	c #685026",
") 	c #513D1A",
"! 	c #000001",
"~ 	c #644628",
"{ 	c #4E351D",
"] 	c #000002",
"^ 	c #674E25",
"/ 	c #503C1A",
"( 	c #664B28",
"_ 	c #4F391B",
": 	c #654828",
"< 	c #4E371C",
"[ 	c #020101",
"} 	c #040302",
"| 	c #685024",
"1 	c #271C14",
"2 	c #362B23",
"3 	c #251A18",
"4 	c #050004",
"5 	c #64462A",
"6 	c #110907",
"7 	c #3A2C21",
"8 	c #60493B",
"9 	c #4F3F35",
"0 	c #0D0405",
"a 	c #010001",
"b 	c #674E27",
"c 	c #251B12",
"d 	c #473629",
"e 	c #6B5343",
"f 	c #54453B",
"g 	c #170D0B",
"h 	c #030003",
"i 	c #0B0903",
"j 	c #403124",
"k 	c #78594A",
"l 	c #553E37",
"m 	c #180F0A",
"n 	c #020202",
"o 	c #654829",
"p 	c #050505",
"q 	c #1A1A1A",
"r 	c #1E1E1F",
"s 	c #352C2D",
"t 	c #896B5D",
"u 	c #605048",
"v 	c #312F35",
"w 	c #333139",
"x 	c #040405",
"y 	c #0A0A0C",
"z 	c #34343A",
"A 	c #89888A",
"B 	c #7A7A7D",
"C 	c #49495B",
"D 	c #4C476B",
"E 	c #555370",
"F 	c #54545E",
"G 	c #4D4C50",
"H 	c #393946",
"I 	c #47474F",
"J 	c #09090B",
"K 	c #000008",
"L 	c #24234D",
"M 	c #757485",
"N 	c #9B9B9B",
"O 	c #9E9E9D",
"P 	c #707088",
"Q 	c #6D6C90",
"R 	c #9C9C9C",
"S 	c #707079",
"T 	c #232253",
"U 	c #010132",
"V 	c #000006",
"W 	c #000042",
"X 	c #3E3E60",
"Y 	c #A0A0AA",
"Z 	c #D3D3D4",
"` 	c #C4C4C7",
" .	c #BDBDBC",
"..	c #D6D6D6",
"+.	c #909099",
"@.	c #0F0E4F",
"#.	c #141446",
"$.	c #4B4B4C",
"%.	c #664B27",
"&.	c #2B1E1D",
"*.	c #29284F",
"=.	c #211E41",
"-.	c #9897A3",
";.	c #D9D9DB",
">.	c #E3E3E5",
",.	c #E2E2E2",
"'.	c #D0D0D6",
").	c #88879D",
"!.	c #171537",
"~.	c #282753",
"{.	c #65656B",
"].	c #644727",
"^.	c #2C1E18",
"/.	c #533F34",
"(.	c #624E52",
"_.	c #5E5C73",
":.	c #454562",
"<.	c #686895",
"[.	c #7C7BA0",
"}.	c #7170AD",
"|.	c #646283",
"1.	c #3C3B6F",
"2.	c #131332",
"3.	c #453636",
"4.	c #3D383A",
"5.	c #1C1C1F",
"6.	c #674E23",
"7.	c #3D3230",
"8.	c #615048",
"9.	c #6D5E5C",
"0.	c #9998A6",
"a.	c #3B3B61",
"b.	c #272783",
"c.	c #3D3C6F",
"d.	c #403E88",
"e.	c #2E2E8D",
"f.	c #23226B",
"g.	c #2B2A40",
"h.	c #454043",
"i.	c #78766F",
"j.	c #463937",
"k.	c #63452E",
"l.	c #48301C",
"m.	c #787375",
"n.	c #A49C9D",
"o.	c #908788",
"p.	c #EBEBF3",
"q.	c #9D9DA8",
"r.	c #000055",
"s.	c #080124",
"t.	c #0E0833",
"u.	c #212179",
"v.	c #3C3B55",
"w.	c #4D4A55",
"x.	c #87878F",
"y.	c #665F64",
"z.	c #644C3E",
"A.	c #6C5548",
"B.	c #170E0B",
"C.	c #9C9CA0",
"D.	c #CFC8CE",
"E.	c #9C9CA1",
"F.	c #DDDDE5",
"G.	c #888899",
"H.	c #15134E",
"I.	c #0D061B",
"J.	c #120C23",
"K.	c #292759",
"L.	c #3C3B57",
"M.	c #595863",
"N.	c #95959D",
"O.	c #C1C1C3",
"P.	c #A9A5A3",
"Q.	c #63422E",
"R.	c #3A2517",
"S.	c #50494B",
"T.	c #828084",
"U.	c #918E92",
"V.	c #7E7E87",
"W.	c #7A7A86",
"X.	c #595874",
"Y.	c #9B9AA7",
"Z.	c #464448",
"`.	c #28262B",
" +	c #5C5B65",
".+	c #2C2A3F",
"++	c #535358",
"@+	c #858587",
"#+	c #FDFDFD",
"$+	c #DADADA",
"%+	c #5F4300",
"&+	c #513C1A",
"*+	c #2F2A28",
"=+	c #675247",
"-+	c #5E5A59",
";+	c #575662",
">+	c #04023D",
",+	c #272560",
"'+	c #A8A8B0",
")+	c #4F4E50",
"!+	c #1E1B21",
"~+	c #43434C",
"{+	c #0A0819",
"]+	c #292930",
"^+	c #717176",
"/+	c #F7F7F7",
"(+	c #D5D5D5",
"_+	c #5C3905",
":+	c #423228",
"<+	c #372928",
"[+	c #2D293E",
"}+	c #0E0D2D",
"|+	c #000028",
"1+	c #413F58",
"2+	c #D1D1D4",
"3+	c #717070",
"4+	c #4B4A4B",
"5+	c #737373",
"6+	c #171517",
"7+	c #090108",
"8+	c #181419",
"9+	c #404043",
"0+	c #49494A",
"a+	c #674F22",
"b+	c #3E2F22",
"c+	c #645B5A",
"d+	c #747378",
"e+	c #2F2E65",
"f+	c #14145D",
"g+	c #7E7E8F",
"h+	c #E3E3E4",
"i+	c #CACACA",
"j+	c #B8B6BC",
"k+	c #A6A3A6",
"l+	c #5C5B5E",
"m+	c #070112",
"n+	c #16131B",
"o+	c #1A1822",
"p+	c #16161C",
"q+	c #161819",
"r+	c #A4A19F",
"s+	c #D3D2D3",
"t+	c #A4A4C7",
"u+	c #3636A3",
"v+	c #707092",
"w+	c #DEDEE1",
"x+	c #FFFFFF",
"y+	c #F9F7FF",
"z+	c #DAD7DE",
"A+	c #767778",
"B+	c #323236",
"C+	c #373639",
"D+	c #353637",
"E+	c #6B5233",
"F+	c #503A1A",
"G+	c #464646",
"H+	c #878787",
"I+	c #CBCBCB",
"J+	c #ECE9F3",
"K+	c #E1DDEC",
"L+	c #474170",
"M+	c #6A6873",
"N+	c #B9B9BB",
"O+	c #F9F9F9",
"P+	c #F8F9F9",
"Q+	c #B7B7BE",
"R+	c #616165",
"S+	c #424046",
"T+	c #3F3F46",
"U+	c #353439",
"V+	c #383838",
"W+	c #574A45",
"X+	c #392B25",
"Y+	c #666666",
"Z+	c #C7C7C7",
"`+	c #EBE8F2",
" @	c #EDEBF0",
".@	c #8C898C",
"+@	c #766B64",
"@@	c #A8A8A7",
"#@	c #ADADAD",
"$@	c #F5F5F5",
"%@	c #F4F3F4",
"&@	c #97979F",
"*@	c #79797E",
"=@	c #454041",
"-@	c #36333B",
";@	c #3B3941",
">@	c #444346",
",@	c #504E53",
"'@	c #2D2C2C",
")@	c #141514",
"!@	c #8B878A",
"~@	c #EAE5EF",
"{@	c #F6F4F5",
"]@	c #D6D4DA",
"^@	c #605F5F",
"/@	c #8F8C88",
"(@	c #A4A094",
"_@	c #AAA8A1",
":@	c #F6F5F6",
"<@	c #EDE9F5",
"[@	c #9F9AA4",
"}@	c #828188",
"|@	c #443F3D",
"1@	c #221E24",
"2@	c #424144",
"3@	c #4C4A52",
"4@	c #585759",
"5@	c #414142",
"6@	c #0D0D0D",
"7@	c #404040",
"8@	c #C5C4C6",
"9@	c #CBC4AB",
"0@	c #736047",
"a@	c #423E3F",
"b@	c #979598",
"c@	c #A59B88",
"d@	c #A9A596",
"e@	c #F6F6F6",
"f@	c #F2F2F3",
"g@	c #656478",
"h@	c #706C7B",
"i@	c #514C53",
"j@	c #2F2521",
"k@	c #424242",
"l@	c #47464F",
"m@	c #62626B",
"n@	c #707072",
"o@	c #292929",
"p@	c #303030",
"q@	c #98969E",
"r@	c #CCCAD5",
"s@	c #AFA795",
"t@	c #5C5643",
"u@	c #75684B",
"v@	c #53536E",
"w@	c #605F6F",
"x@	c #818088",
"y@	c #BEBEC1",
"z@	c #C8C8CB",
"A@	c #A09FAC",
"B@	c #4A4A66",
"C@	c #595A5F",
"D@	c #373030",
"E@	c #2F2F31",
"F@	c #414146",
"G@	c #63626B",
"H@	c #48484F",
"I@	c #171717",
"J@	c #434351",
"K@	c #47477C",
"L@	c #786869",
"M@	c #676154",
"N@	c #88735C",
"O@	c #00004C",
"P@	c #2C2B3E",
"Q@	c #444348",
"R@	c #5C5C65",
"S@	c #8A8A92",
"T@	c #CACAD9",
"U@	c #484775",
"V@	c #616169",
"W@	c #3B3A40",
"X@	c #020212",
"Y@	c #18172F",
"Z@	c #323153",
"`@	c #171630",
" #	c #646465",
".#	c #131313",
"+#	c #00001F",
"@#	c #0A0A53",
"##	c #2D264A",
"$#	c #2A2839",
"%#	c #372E37",
"&#	c #2F3038",
"*#	c #6D6D75",
"=#	c #B9B9C0",
"-#	c #9D9DA6",
";#	c #86858D",
">#	c #D7D7E0",
",#	c #9C9CAD",
"'#	c #363556",
")#	c #242238",
"!#	c #020213",
"~#	c #05052B",
"{#	c #050546",
"]#	c #67676E",
"^#	c #7F7F7F",
"/#	c #181818",
"(#	c #00001B",
"_#	c #040449",
":#	c #0E0E4A",
"<#	c #151335",
"[#	c #3A3441",
"}#	c #636364",
"|#	c #9C9CA3",
"1#	c #F1F1F4",
"2#	c #CCCCD3",
"3#	c #A49FA5",
"4#	c #EAEAF0",
"5#	c #CBCADA",
"6#	c #575575",
"7#	c #2E2D36",
"8#	c #030006",
"9#	c #040426",
"0#	c #000041",
"a#	c #6F6F74",
"b#	c #818181",
"c#	c #020220",
"d#	c #1E1E6E",
"e#	c #18185B",
"f#	c #201D23",
"g#	c #6E5F55",
"h#	c #909092",
"i#	c #A0A0A8",
"j#	c #D3D3DB",
"k#	c #E0E0E8",
"l#	c #D3D4DC",
"m#	c #DCDAE5",
"n#	c #CFCCE0",
"o#	c #9596A7",
"p#	c #605D5F",
"q#	c #8D8C8D",
"r#	c #04022F",
"s#	c #080849",
"t#	c #707074",
"u#	c #707070",
"v#	c #11114A",
"w#	c #3737A2",
"x#	c #252575",
"y#	c #0F0922",
"z#	c #73645C",
"A#	c #CACACB",
"B#	c #C0BFC4",
"C#	c #95949C",
"D#	c #88888E",
"E#	c #828289",
"F#	c #8F8F99",
"G#	c #C6C6CF",
"H#	c #ABABB2",
"I#	c #514946",
"J#	c #ACACAC",
"K#	c #15144A",
"L#	c #51515B",
"M#	c #1C1C17",
"N#	c #020221",
"O#	c #202073",
"P#	c #262687",
"Q#	c #1F1F71",
"R#	c #00004E",
"S#	c #514742",
"T#	c #BFBFC1",
"U#	c #D1CDD4",
"V#	c #9C99A2",
"W#	c #3C3B3F",
"X#	c #333235",
"Y#	c #939395",
"Z#	c #A1A1A6",
"`#	c #B7B7B7",
" $	c #090935",
".$	c #26267C",
"+$	c #28287E",
"@$	c #030323",
"#$	c #010118",
"$$	c #14145B",
"%$	c #12125C",
"&$	c #BDBDBF",
"*$	c #ACACB3",
"=$	c #C9C9D1",
"-$	c #A4A3AC",
";$	c #3E3D42",
">$	c #3E3C41",
",$	c #AAAAAE",
"'$	c #CACACE",
")$	c #88888C",
"!$	c #C4C4C4",
"~$	c #D4D4D4",
"{$	c #10101E",
"]$	c #14144A",
"^$	c #121253",
"/$	c #060633",
"($	c #00000B",
"_$	c #15151A",
":$	c #5F5F5F",
"<$	c #E3E3E3",
"[$	c #E2E1E2",
"}$	c #827D83",
"|$	c #AFAFB7",
"1$	c #8A8A8E",
"2$	c #2F2F2F",
"3$	c #3F3E3F",
"4$	c #AAAAAC",
"5$	c #6E6E72",
"6$	c #808080",
"7$	c #7C7C7C",
"8$	c #8C8C8C",
"9$	c #0E0E12",
"0$	c #000005",
"a$	c #4B4B4B",
"b$	c #787878",
"c$	c #B2B2B2",
"d$	c #E6E6E6",
"e$	c #EAEAEB",
"f$	c #6F6F77",
"g$	c #ACACB4",
"h$	c #6C6C70",
"i$	c #0F0F0E",
"j$	c #2A2A2A",
"k$	c #939393",
"l$	c #C6C6C7",
"m$	c #AFAFB0",
"n$	c #A4A4A4",
"o$	c #4D4D4D",
"p$	c #515151",
"q$	c #A7A7A7",
"r$	c #959595",
"s$	c #484848",
"t$	c #6D6D6D",
"u$	c #A1A1A1",
"v$	c #DCDCDC",
"w$	c #E0E0E0",
"x$	c #B5B5B6",
"y$	c #CBCBCF",
"z$	c #ADADB4",
"A$	c #3B3B3D",
"B$	c #3C3C3E",
"C$	c #B3B3B8",
"D$	c #D8D8DD",
"E$	c #DCDCDD",
"F$	c #BCBCBC",
"G$	c #272727",
"H$	c #DBDBDB",
"I$	c #B4B4B4",
"J$	c #9A9A9B",
"K$	c #BEBEC4",
"L$	c #BABAC2",
"M$	c #444448",
"N$	c #3D3D3E",
"O$	c #B0B0B3",
"P$	c #BDBDC1",
"Q$	c #D0D0D1",
"R$	c #E1E1E1",
"S$	c #ABABAB",
"T$	c #151515",
"U$	c #767676",
"V$	c #B1B1B1",
"W$	c #505050",
"X$	c #898989",
"Y$	c #3A3A3B",
"Z$	c #9B9BA1",
"`$	c #7C7C82",
" %	c #131315",
".%	c #252525",
"+%	c #9E9E9F",
"@%	c #505052",
"#%	c #CECECE",
"$%	c #979797",
"%%	c #AEAEAE",
"&%	c #757575",
"*%	c #393939",
"=%	c #545454",
"-%	c #2B2B2B",
";%	c #8B8B8B",
">%	c #686868",
",%	c #6A6A6F",
"'%	c #86868C",
")%	c #010000",
"!%	c #7D7D7D",
"~%	c #4C4C4C",
"{%	c #828282",
"]%	c #363636",
"^%	c #676767",
"/%	c #6F6F6F",
"(%	c #5C5C5C",
"_%	c #474747",
":%	c #B6B6B6",
"<%	c #868686",
"[%	c #67676A",
"}%	c #58585A",
"|%	c #3E3E3E",
"1%	c #2C2B2D",
"2%	c #252427",
"3%	c #656565",
"4%	c #212121",
"5%	c #595959",
"6%	c #686867",
"7%	c #848488",
"8%	c #838386",
"9%	c #616161",
"0%	c #525252",
"a%	c #616164",
"b%	c #4B4B4E",
"c%	c #555555",
"d%	c #343436",
"e%	c #101010",
"f%	c #040003",
"g%	c #666567",
"h%	c #4E4E50",
"i%	c #232323",
"j%	c #242323",
"                                                              . + @                                 ",
"                                                              # $ %                                 ",
"                                                              & * =                                 ",
"                                                              - ; >                                 ",
"                                                              , ' )                                 ",
"                                                              ! ~ {                                 ",
"                                                              ] ^ /                                 ",
"                                                              , ( _                                 ",
"                                                              ] : <                                 ",
"                                              [ } [           ! | )                                 ",
"                                              1 2 3 4         , 5 {                                 ",
"                                            6 7 8 9 0 a       , b /                                 ",
"                                            c d e f g h       , ( _                                 ",
"                                            i j k l m n       , o <                                 ",
"                                        p q r s t u v w x y ! , ' )                                 ",
"                                      ! z A B C D E F G H I J , 5 {                                 ",
"                                      K L M N O P Q R S T U   , b /                                 ",
"                                      V W X Y Z `  ...+.@.#.$.  %._                                 ",
"                                      &.*.=.-.;.>.,.'.).!.~.{.  ].<                                 ",
"                                    ^./.(._.:.<.[.}.|.1.2.3.4.5.6.)                                 ",
"                                    7.8.9.0.a.b.c.d.e.f.g.h.i.j.k.l.                                ",
"                                    m.n.o.p.q.r.s.t.u.v.w.x.y.z.A.B.                                ",
"                                    C.D.E.F.G.H.I.J.K.L.M.N.O.P.Q.R.                                ",
"                                  S.T.U.V.W.X.Y.Z.`. +.+++@+#+$+%+&+                                ",
"                                  *+=+-+;+>+,+'+)+!+~+{+]+^+/+(+_+{                                 ",
"                                  :+<+[+}+|+1+2+3+4+5+6+7+8+9+0+a+)                                 ",
"                                  b+c+d+e+f+g+h+i+j+k+l+m+n+o+p+: <                                 ",
"                                  q+r+s+t+u+v+w+x+y+z+A+]+B+C+D+E+F+                                ",
"                                G+H+I+J+K+L+M+N+O+P+Q+R+S+T+U+V+W+X+                                ",
"                                Y+Z+`+ @.@+@@@#@$@%@&@*@=@-@;@>@,@'@                                ",
"                              )@!@~@{@]@^@/@(@_@:@<@[@}@|@1@2@3@4@5@6@                              ",
"                              7@8@x+9@0@a@b@c@d@e@f@g@h@i@j@k@l@m@n@o@                              ",
"                              p@q@r@s@t@u@v@w@x@y@z@A@B@C@D@E@F@G@H@!                               ",
"                              I@J@K@L@M@N@O@P@Q@R@S@T@U@V@W@X@Y@Z@`@ #.#                            ",
"                                +#@###$#%#&#*#=#-#;#>#,#'#)#!#~#{#]#^#/#                            ",
"                                (#_#:#<#[#}#|#1#2#3#4#5#6#7#8#9#0#a#b#/#                            ",
"                                c#d#e#f#g#h#i#j#k#l#m#n#o#p#q#r#s#t#u#.#                            ",
"                                v#w#x#y#z#A#B#C#D#E#F#G#H#I#J#(#K#L#M#                              ",
"                            N#O#P#Q#R#+#S#T#U#V#W#X#Y#'.Z#|@`#]  $.$+$@$                            ",
"                            #$$$%$(#&$Z A#*$=$-$;$>$,$'$)$!$~$Y+{$]$^$/$                            ",
"                            ! ($_$:$i+<$[$}$|$1$2$3$4$=#5$6$^#7$8$:$9$0$                            ",
"                                a$b$c$d$e$f$g$h$i$j$k$l$m$n$o$p$q$r$o@                              ",
"                                s$t$u$v$w$x$y$z$A$B$C$D$E$w$F$n$t$s$                                ",
"                              G$k$I+H$I$..J$K$L$M$N$O$P$Q$w$R$H$S$G+                                ",
"                            T$U$n$R$V$W$X$Y$Z$`$ %.%k$+%@%#%$%%%H$N &%T$                            ",
"                            2$*%=%I$%%p$X$-%;%>%    ,%'%)%!%.%~%{%~%]%2$                            ",
"                            ^%/%(%_%:%<%F$W$[%}%~%~%|%1%2%3%.#      ^%^%                            ",
"                                    a$4%5%6%7%8%3%9%0%a%b%                                          ",
"                                          k@c%d%e%  f%g%h%                                          ",
"                                          q i%      a j%q                                           "};
