/* XPM */
static char * F:\sprite\1\playerleft_xpm[] = {
"50 50 691 2",
"  	c #000000",
". 	c #4D4D00",
"+ 	c #4C460A",
"@ 	c #100A02",
"# 	c #AEAB22",
"$ 	c #AC9E2E",
"% 	c #30230C",
"& 	c #6E5C34",
"* 	c #67502D",
"= 	c #150903",
"- 	c #634626",
"; 	c #503920",
"> 	c #020102",
", 	c #664F23",
"' 	c #53401D",
") 	c #020101",
"! 	c #624427",
"~ 	c #503820",
"{ 	c #020201",
"] 	c #654D23",
"^ 	c #533E1D",
"/ 	c #644A25",
"( 	c #523C1E",
"_ 	c #634726",
": 	c #513A21",
"< 	c #020202",
"[ 	c #664E22",
"} 	c #544020",
"| 	c #040203",
"1 	c #030201",
"2 	c #070403",
"3 	c #040202",
"4 	c #5C422B",
"5 	c #180E0E",
"6 	c #2D211D",
"7 	c #4B392F",
"8 	c #3C2C24",
"9 	c #0B0606",
"0 	c #564123",
"a 	c #3B2A26",
"b 	c #5A473B",
"c 	c #92786C",
"d 	c #7E665C",
"e 	c #20150F",
"f 	c #584226",
"g 	c #584138",
"h 	c #7B6050",
"i 	c #B59286",
"j 	c #957D73",
"k 	c #2E2118",
"l 	c #573F26",
"m 	c #645146",
"n 	c #866C5B",
"o 	c #947766",
"p 	c #6F584B",
"q 	c #0F0702",
"r 	c #664E30",
"s 	c #5A463A",
"t 	c #6D5549",
"u 	c #A27D70",
"v 	c #9E8D8C",
"w 	c #65666A",
"x 	c #181818",
"y 	c #614426",
"z 	c #70513E",
"A 	c #352C2B",
"B 	c #302D3F",
"C 	c #4E4853",
"D 	c #555357",
"E 	c #717174",
"F 	c #595959",
"G 	c #090909",
"H 	c #654C22",
"I 	c #6C563D",
"J 	c #6B6A69",
"K 	c #707074",
"L 	c #6D6D77",
"M 	c #515166",
"N 	c #56566E",
"O 	c #9F9FA1",
"P 	c #666666",
"Q 	c #483222",
"R 	c #847E80",
"S 	c #6D6E72",
"T 	c #686887",
"U 	c #201F6D",
"V 	c #2D2D83",
"W 	c #2B2B8A",
"X 	c #ACACB7",
"Y 	c #A4A1A1",
"Z 	c #010001",
"` 	c #060004",
" .	c #050004",
"..	c #080C0D",
"+.	c #66656C",
"@.	c #3A3978",
"#.	c #29298F",
"$.	c #2A2B7F",
"%.	c #2F2F91",
"&.	c #4242BC",
"*.	c #5A587C",
"=.	c #7E7677",
"-.	c #5A5A5A",
";.	c #2A2829",
">.	c #080207",
",.	c #100A0F",
"'.	c #1A1619",
").	c #0D060B",
"!.	c #080006",
"~.	c #070005",
"{.	c #040003",
"].	c #5B3D23",
"^.	c #4E3942",
"/.	c #292985",
"(.	c #3A3AAC",
"_.	c #4242B4",
":.	c #504B84",
"<.	c #786674",
"[.	c #8C7065",
"}.	c #816C5D",
"|.	c #261E11",
"1.	c #646464",
"2.	c #6E6D6E",
"3.	c #898889",
"4.	c #888888",
"5.	c #5C5C5C",
"6.	c #4A494A",
"7.	c #3E3C3D",
"8.	c #030001",
"9.	c #030002",
"0.	c #664F21",
"a.	c #534044",
"b.	c #202174",
"c.	c #3535A0",
"d.	c #4949BD",
"e.	c #31308A",
"f.	c #1D1834",
"g.	c #7D6153",
"h.	c #A38275",
"i.	c #4F3A32",
"j.	c #131212",
"k.	c #E4E4E4",
"l.	c #E1E1E1",
"m.	c #E3E1E3",
"n.	c #D9D6DC",
"o.	c #D4D4D7",
"p.	c #CFCCCD",
"q.	c #C9C8C9",
"r.	c #ADAAAC",
"s.	c #423D3C",
"t.	c #634723",
"u.	c #513B5B",
"v.	c #202070",
"w.	c #2B2B91",
"x.	c #28288F",
"y.	c #050452",
"z.	c #37241B",
"A.	c #A18072",
"B.	c #79594C",
"C.	c #32251A",
"D.	c #575656",
"E.	c #F1F1F1",
"F.	c #FFFFFF",
"G.	c #FDFDFF",
"H.	c #F8F8FC",
"I.	c #F8F5F5",
"J.	c #F7F6F7",
"K.	c #EBE7E9",
"L.	c #CAC8CA",
"M.	c #7D7D80",
"N.	c #0B070A",
"O.	c #000004",
"P.	c #654A23",
"Q.	c #5A464F",
"R.	c #1B172D",
"S.	c #2F2F8E",
"T.	c #19196A",
"U.	c #847F8B",
"V.	c #AAA2A2",
"W.	c #887368",
"X.	c #72625F",
"Y.	c #605F64",
"Z.	c #F1F1F2",
"`.	c #FEFEFF",
" +	c #EBEBEC",
".+	c #BFBFBF",
"++	c #292728",
"@+	c #050006",
"#+	c #372115",
"$+	c #36272A",
"%+	c #191319",
"&+	c #1A1748",
"*+	c #5F5F66",
"=+	c #B3B1B4",
"-+	c #D7D6DA",
";+	c #C2C1C7",
">+	c #96949A",
",+	c #222222",
"'+	c #313134",
")+	c #EFEFEF",
"!+	c #F8F8FB",
"~+	c #FBFBFD",
"{+	c #F7F7F7",
"]+	c #5E5E5E",
"^+	c #090208",
"/+	c #030022",
"(+	c #150E15",
"_+	c #2D2A2F",
":+	c #9E9C9C",
"<+	c #DFDFE3",
"[+	c #C0BDBF",
"}+	c #D1D0D1",
"|+	c #B0AFB0",
"1+	c #6B6863",
"2+	c #434343",
"3+	c #030303",
"4+	c #0A0A0A",
"5+	c #050505",
"6+	c #040404",
"7+	c #929299",
"8+	c #F6F6F6",
"9+	c #FCFBFD",
"0+	c #E5E5E6",
"a+	c #EDEDEE",
"b+	c #FEFEFE",
"c+	c #FCFCFC",
"d+	c #A6A6A6",
"e+	c #27272B",
"f+	c #000018",
"g+	c #000014",
"h+	c #2E201E",
"i+	c #765A50",
"j+	c #B08F81",
"k+	c #7B6460",
"l+	c #1E1D23",
"m+	c #CFCFD7",
"n+	c #E0E0E1",
"o+	c #7F7F7F",
"p+	c #696969",
"q+	c #484848",
"r+	c #4D4D4D",
"s+	c #353535",
"t+	c #323232",
"u+	c #131313",
"v+	c #191919",
"w+	c #060606",
"x+	c #B9B9BD",
"y+	c #FBFBFC",
"z+	c #F7F6FB",
"A+	c #C6C3CF",
"B+	c #7F7F86",
"C+	c #9E9EA6",
"D+	c #F0EEF1",
"E+	c #828282",
"F+	c #100F1E",
"G+	c #000019",
"H+	c #333244",
"I+	c #5B474A",
"J+	c #8B695A",
"K+	c #8D7B6F",
"L+	c #292B3A",
"M+	c #C2C2C8",
"N+	c #D7D7D9",
"O+	c #B4B4B4",
"P+	c #959595",
"Q+	c #6D6D6C",
"R+	c #585858",
"S+	c #4E4E4E",
"T+	c #545454",
"U+	c #5F5F5F",
"V+	c #232423",
"W+	c #040502",
"X+	c #D6D7DA",
"Y+	c #E1DFDF",
"Z+	c #D9D6DE",
"`+	c #31322B",
" @	c #3E3E43",
".@	c #D0CBD0",
"+@	c #F7F6FA",
"@@	c #B8B4B8",
"#@	c #404040",
"$@	c #12100D",
"%@	c #929198",
"&@	c #6A687B",
"*@	c #5E4653",
"=@	c #000049",
"-@	c #00002D",
";@	c #878787",
">@	c #C8C8CC",
",@	c #DBDBDB",
"'@	c #D6D6D8",
")@	c #B3B3B9",
"!@	c #9B9B9C",
"~@	c #757575",
"{@	c #6C6C6C",
"]@	c #6D6D6D",
"^@	c #747474",
"/@	c #2D2C2D",
"(@	c #030003",
"_@	c #494446",
":@	c #A8A7AB",
"<@	c #9A8C85",
"[@	c #7C7B8B",
"}@	c #1E1E6E",
"|@	c #040422",
"1@	c #A0A0A4",
"2@	c #DDDDE4",
"3@	c #FAFAFD",
"4@	c #F4F0F6",
"5@	c #E9E8F0",
"6@	c #A9A3AA",
"7@	c #414141",
"8@	c #747473",
"9@	c #CFCFD3",
"0@	c #C9C9CD",
"a@	c #9A9AA5",
"b@	c #02002E",
"c@	c #211A1D",
"d@	c #272013",
"e@	c #2C2622",
"f@	c #898989",
"g@	c #CCCCCE",
"h@	c #D7D7DB",
"i@	c #DBDBDD",
"j@	c #C0C0C0",
"k@	c #A5A5A4",
"l@	c #AEAEAE",
"m@	c #C6C6C6",
"n@	c #868686",
"o@	c #171316",
"p@	c #1C1A1B",
"q@	c #383837",
"r@	c #403979",
"s@	c #29287F",
"t@	c #242480",
"u@	c #2A2A83",
"v@	c #202061",
"w@	c #454550",
"x@	c #B2B1B8",
"y@	c #F3F3F5",
"z@	c #DBDBDF",
"A@	c #E5E4EA",
"B@	c #4C495A",
"C@	c #5B5B5C",
"D@	c #BBBBBB",
"E@	c #DCDCDD",
"F@	c #B9B9B9",
"G@	c #877D7F",
"H@	c #826754",
"I@	c #815E45",
"J@	c #815E46",
"K@	c #988355",
"L@	c #AB8A76",
"M@	c #A4A4A7",
"N@	c #B7B7BB",
"O@	c #CCCCCC",
"P@	c #B2B2B7",
"Q@	c #BDBDC5",
"R@	c #D4D4DB",
"S@	c #BEBEC2",
"T@	c #4C4B4B",
"U@	c #24247C",
"V@	c #262682",
"W@	c #1D1D6E",
"X@	c #423D7F",
"Y@	c #393676",
"Z@	c #1C1A46",
"`@	c #847D92",
" #	c #D5D5E1",
".#	c #D5D1DF",
"+#	c #BFBCCC",
"@#	c #8782A3",
"##	c #22213C",
"$#	c #7A7A7C",
"%#	c #DCD8DC",
"&#	c #D5D2D5",
"*#	c #938E8D",
"=#	c #AD856E",
"-#	c #B0866C",
";#	c #B09266",
">#	c #B08E69",
",#	c #B3977F",
"'#	c #BDAAA0",
")#	c #E2E0EE",
"!#	c #ECE9EE",
"~#	c #F0F0F5",
"{#	c #EEEEEF",
"]#	c #D2D2D2",
"^#	c #C2C2C2",
"/#	c #919091",
"(#	c #2C2A31",
"_#	c #0C040B",
":#	c #020002",
"<#	c #1E1E6F",
"[#	c #262685",
"}#	c #0C0E51",
"|#	c #796E63",
"1#	c #655C74",
"2#	c #272783",
"3#	c #2A2A8A",
"4#	c #37368C",
"5#	c #3333A5",
"6#	c #3F40B1",
"7#	c #806979",
"8#	c #35313B",
"9#	c #A3A2A9",
"0#	c #F3F2F6",
"a#	c #CDCBCE",
"b#	c #896D63",
"c#	c #7F573E",
"d#	c #865938",
"e#	c #875C3E",
"f#	c #865E43",
"g#	c #846964",
"h#	c #B0AFC9",
"i#	c #807FC6",
"j#	c #CBCBE6",
"k#	c #E9E9F3",
"l#	c #F5F5F8",
"m#	c #F0F0F0",
"n#	c #CCCCCB",
"o#	c #9999A0",
"p#	c #3F3C56",
"q#	c #1A161E",
"r#	c #000003",
"s#	c #17175C",
"t#	c #0D0D45",
"u#	c #302F81",
"v#	c #2F2F7F",
"w#	c #282886",
"x#	c #313188",
"y#	c #404086",
"z#	c #3333A4",
"A#	c #4B4AA4",
"B#	c #646482",
"C#	c #313142",
"D#	c #A8A7B1",
"E#	c #F5F3FD",
"F#	c #D6D2DE",
"G#	c #7E6968",
"H#	c #8C5A39",
"I#	c #8F5A39",
"J#	c #8C5937",
"K#	c #B8998C",
"L#	c #E6E5E8",
"M#	c #5B5B91",
"N#	c #3C3BA7",
"O#	c #7A7AC3",
"P#	c #A5A5CF",
"Q#	c #BEBEDC",
"R#	c #AAAAC4",
"S#	c #817889",
"T#	c #584346",
"U#	c #201619",
"V#	c #171754",
"W#	c #2E2E97",
"X#	c #1D1D64",
"Y#	c #2C2C8F",
"Z#	c #42429C",
"`#	c #707092",
" $	c #46459D",
".$	c #6463A1",
"+$	c #757584",
"@$	c #2A295B",
"#$	c #71707C",
"$$	c #AEAEC0",
"%$	c #8786BE",
"&$	c #363264",
"*$	c #704D39",
"=$	c #905A39",
"-$	c #915836",
";$	c #CBBEB8",
">$	c #B8B7BF",
",$	c #56558C",
"'$	c #3F3EA6",
")$	c #4343B9",
"!$	c #79739E",
"~$	c #555496",
"{$	c #3536A4",
"]$	c #81716F",
"^$	c #7C6D4B",
"/$	c #221A17",
"($	c #04041E",
"_$	c #0D0D3B",
":$	c #02021A",
"<$	c #2D2D91",
"[$	c #4A4A9D",
"}$	c #8C8B9D",
"|$	c #5857A0",
"1$	c #9392B4",
"2$	c #B4B3BE",
"3$	c #494958",
"4$	c #585761",
"5$	c #595974",
"6$	c #373799",
"7$	c #24247E",
"8$	c #402B49",
"9$	c #8D5A39",
"0$	c #8C5834",
"a$	c #DDD3D8",
"b$	c #8A8997",
"c$	c #4444AF",
"d$	c #4141B0",
"e$	c #4848BA",
"f$	c #5755BF",
"g$	c #5454C1",
"h$	c #4848B7",
"i$	c #413D77",
"j$	c #322E49",
"k$	c #0C0415",
"l$	c #303084",
"m$	c #40408F",
"n$	c #838392",
"o$	c #807FB3",
"p$	c #CECEE0",
"q$	c #EEEBF7",
"r$	c #5F5F63",
"s$	c #6A6A73",
"t$	c #6C6B7D",
"u$	c #3E3D8E",
"v$	c #282887",
"w$	c #39244E",
"x$	c #8B5836",
"y$	c #BBB7BC",
"z$	c #7B7B90",
"A$	c #4D4DB1",
"B$	c #8988B2",
"C$	c #7E7DAC",
"D$	c #4E4EC3",
"E$	c #5252C8",
"F$	c #4949B2",
"G$	c #2A2A82",
"H$	c #10104B",
"I$	c #06000E",
"J$	c #515154",
"K$	c #C8C8CF",
"L$	c #606066",
"M$	c #51515C",
"N$	c #71717C",
"O$	c #484870",
"P$	c #333394",
"Q$	c #3C2A63",
"R$	c #8D5A38",
"S$	c #855738",
"T$	c #4F4446",
"U$	c #3A394F",
"V$	c #5757A3",
"W$	c #A4A4CF",
"X$	c #A2A0AB",
"Y$	c #5C5BBA",
"Z$	c #5252C0",
"`$	c #4B4872",
" %	c #353383",
".%	c #1D1B59",
"+%	c #01000F",
"@%	c #525254",
"#%	c #C4C4CA",
"$%	c #F5F4FC",
"%%	c #D8D7E0",
"&%	c #2C2C2E",
"*%	c #00000A",
"=%	c #3A3AA0",
"-%	c #3E3080",
";%	c #845537",
">%	c #815539",
",%	c #2D1A0D",
"'%	c #191917",
")%	c #444463",
"!%	c #77769C",
"~%	c #888490",
"{%	c #5F5D9A",
"]%	c #4D4DC1",
"^%	c #4D4C8F",
"/%	c #303086",
"(%	c #232261",
"_%	c #060213",
":%	c #BDBDC2",
"<%	c #EBEAF4",
"[%	c #C6C6CA",
"}%	c #292929",
"|%	c #000008",
"1%	c #1F1F6F",
"2%	c #252168",
"3%	c #5E3B36",
"4%	c #8D5B37",
"5%	c #684228",
"6%	c #1C0E06",
"7%	c #3D3D3F",
"8%	c #83838A",
"9%	c #A7A7B6",
"0%	c #CACAE3",
"a%	c #9E9EAA",
"b%	c #3A3950",
"c%	c #110D37",
"d%	c #08010A",
"e%	c #4E4E51",
"f%	c #B2B1BE",
"g%	c #E2E2EC",
"h%	c #B5B5BB",
"i%	c #232325",
"j%	c #000002",
"k%	c #020226",
"l%	c #03033C",
"m%	c #080949",
"n%	c #412837",
"o%	c #5C3A27",
"p%	c #180C04",
"q%	c #2E2E31",
"r%	c #95949C",
"s%	c #ECE8F5",
"t%	c #CECED4",
"u%	c #7B7B7B",
"v%	c #221F21",
"w%	c #10090E",
"x%	c #424242",
"y%	c #ACACB2",
"z%	c #E4E4E8",
"A%	c #948E91",
"B%	c #171516",
"C%	c #020228",
"D%	c #1E1E60",
"E%	c #121248",
"F%	c #01012C",
"G%	c #070305",
"H%	c #0B0502",
"I%	c #2C2C2F",
"J%	c #ABABB3",
"K%	c #DADAE1",
"L%	c #CACACE",
"M%	c #B1B1B3",
"N%	c #484748",
"O%	c #3E3E3D",
"P%	c #B6B6BC",
"Q%	c #C5C5CD",
"R%	c #5E5F61",
"S%	c #080808",
"T%	c #000010",
"U%	c #00000F",
"V%	c #333336",
"W%	c #B0B0B7",
"X%	c #E5E5E8",
"Y%	c #AFAFAF",
"Z%	c #3C3B3B",
"`%	c #292928",
" &	c #99999F",
".&	c #242426",
"+&	c #707072",
"@&	c #CACACC",
"#&	c #8E8E8E",
"$&	c #242424",
"%&	c #9A9AA0",
"&&	c #A09CA1",
"*&	c #302C2D",
"=&	c #656166",
"-&	c #B8B5BC",
";&	c #808083",
">&	c #1D1D1D",
",&	c #343434",
"'&	c #BBBBBC",
")&	c #CDCDCD",
"!&	c #4B4A4B",
"~&	c #848384",
"{&	c #D3D2D3",
"]&	c #6D6D6E",
"^&	c #131315",
"/&	c #C2C2C4",
"(&	c #A2A1A3",
"_&	c #151515",
":&	c #737377",
"<&	c #C1C1C4",
"[&	c #2D2D32",
"}&	c #ACA9B5",
"|&	c #807D86",
"1&	c #080407",
"2&	c #313131",
"3&	c #6B6B6D",
"4&	c #454546",
"5&	c #141217",
"6&	c #292A2D",
"7&	c #0C0A0B",
"8&	c #282527",
"9&	c #3D3D41",
"0&	c #202025",
"a&	c #121115",
"b&	c #010101",
"c&	c #100F12",
"d&	c #18131D",
"e&	c #030203",
"f&	c #020203",
"g&	c #030306",
"h&	c #010000",
"                                            . + @                                                   ",
"                                            # $ %                                                   ",
"                                            & * =                                                   ",
"                                            - ; >                                                   ",
"                                            , ' )                                                   ",
"                                            ! ~ {                                                   ",
"                                            ] ^ )                                                   ",
"                                            / ( {                                                   ",
"                                            _ : <                                                   ",
"                                            [ } | 1 2 3                                             ",
"                                            ! 4 5 6 7 8 9                                           ",
"                                            ] 0 a b c d e                                           ",
"                                            / f g h i j k                                           ",
"                                            - l m n o p q                                           ",
"                                            [ r s t u v w x                                         ",
"                                            y z A B C D E F G                                       ",
"                                            H I J K L M N O P                                       ",
"                                            Q R S T U V W X Y                                       ",
"                    Z ` ` ` `  .            ..+.@.#.$.%.&.*.=.                                      ",
"                -.;.>.,.'.'.).!.~.{.        ].^./.(._.:.<.[.}.|.                                    ",
"                -.1.F 2.3.4.5.6.7.8.9.Z     0.a.b.c.d.e.f.g.h.i.                                    ",
"                j.k.l.m.n.o.p.q.r.s.  ` 9.  t.u.v.w.x.y.z.A.B.C.                                    ",
"            Z   D.E.F.G.H.H.I.J.K.L.M.N.` O.P.Q.R.S.T.U.V.W.X.                                      ",
"            Z   Y.Z.F.F.F.F.F.F.F.`. +.+++@+#+$+%+&+*+=+-+;+>+,+                                    ",
"                '+)+F.F.!+~+F.F.F.F.F.{+]+^+~./+(+_+:+<+[+}+|+1+2+3+4+5+6+                          ",
"                7+8+F.9+0+a+b+F.F.F.F.c+d+e+f+g+h+i+j+k+l+m+n+o+p+q+r+s+t+u+v+w+                    ",
"                x+y+z+A+B+C+D+F.F.F.F.c+E+F+G+H+I+J+K+L+  M+N+O+P+Q+R+S+T+F U+V+                    ",
"              W+X+Y+Z+`+   @.@!+F.F.F.+@@@#@$@%@&@*@=@-@  ;@>@,@'@)@!@~@{@]@^@/@(@                  ",
"              _@:@<@[@}@|@  1@2@F.3@4@5@6@7@8@9@0@a@b@c@d@e@f@g@h@i@j@k@l@m@n@o@!.` 9.              ",
"              p@q@r@s@t@u@v@w@x@y@z@A@9@B@C@D@E@F@G@H@I@J@K@L@M@N@O@P@Q@R@S@T@~.!.!.{.              ",
"                  U@V@W@X@Y@Z@`@ #.#+#@###$#%#&#*#=#-#;#>#,#'#)#!#~#{#]#^#/#(#_#!.!.!.:#            ",
"                  <#[#}#|#1#2#3#4#5#6#7#8#9#0#a#b#c#d#e#f#g#h#i#j#k#l#m#n#o#p#q#!.!.!.:#            ",
"                  r#s#t#u#v#w#x#y#z#A#B#C#D#E#F#G#H#I#H#J#K#L#M#N#O#P#Q#R#S#T#U#!.!.!.:#            ",
"                      V#W#X#Y#Z#`# $.$+$@$#$$$%$&$*$=$I#-$;$>$,$'$)$!$~${$]$^$/$!.!.!.:#            ",
"                      ($_$:$<$[$}$|$1$2$3$4$5$6$7$8$9$9$0$a$b$c$d$e$f$g$h$i$j$k$!.!.!.:#            ",
"                            l$m$n$o$p$q$r$s$t$u$v$w$9$H#x$y$z$A$B$C$D$E$F$G$H$I$!.!.{.              ",
"                                J$K$~+y@L$M$N$O$P$Q$R$H#S$T$U$V$W$X$Y$Z$`$ %.%+%!.!.{.              ",
"                                @%#%$%%%&%    *%=%-%;%9$>%,%'%)%!%~%{%]%^%/%(%_%!.!.{.              ",
"                                @%:%<%[%}%    |%1%2%3%4%5%6%    7%8%9%0%a%b%c%d%!.!.{.              ",
"                                e%f%g%h%i%  j%k%l%m%n%o%p%        q%r%s%t%u%v%w%!.!.{.              ",
"                                x%y%z%A%B%  C%D%E%F%G%H%            I%J%K%L%M%N%!.!.{.              ",
"                                O%P%Q%R%S%  T%U%                      V%W%X%Y%Z%` !. .Z             ",
"                                `%y% &.&                                +&@&#&$&  {.{.Z             ",
"                                  %&&&*&                                =&-&;&>&                    ",
"                                ,&'&)&!&                                ~&{&]&                      ",
"                                ^&/&(&_&                                :&<&p+                      ",
"                                [&}&|&                                1&2&3&4&                      ",
"                              Z 5& @6&                                7&8&9&0&                      ",
"                              < ^&a&                                b&c&d&                          ",
"                                e&f&                                  3+g&h&                        "};
